<svg width="92" height="92" viewBox="0 0 92 92" fill="none" xmlns="http://www.w3.org/2000/svg">
<path fill-rule="evenodd" clip-rule="evenodd" d="M44.7907 12.0667C42.2365 12.5569 40.4466 13.3066 33.4717 16.8079C23.3487 21.8893 20.1123 24.1853 17.8533 27.8887C15.6774 31.4555 15 34.6261 15 41.2419V41.9569C15 44.166 16.7909 45.9569 19 45.9569H20.25H25.5V62.9784V76C25.5 78.2091 27.2909 80 29.5 80H46.5H63.5C65.7091 80 67.5 78.2091 67.5 76V62.9784V45.9569H72.75H74C76.2091 45.9569 78 44.166 78 41.9569V41.2419C78 36.1072 77.6808 33.6875 76.6401 30.9341C75.333 27.4758 73.1617 24.8513 69.4127 22.1982C66.871 20.3992 52.3695 13.0663 50.2849 12.5258C48.716 12.119 45.7914 11.8746 44.7907 12.0667ZM50.2849 18.2185C51.3593 18.646 52.3368 19.0927 52.4572 19.2109C52.6545 19.4044 46.8367 27.4763 46.5 27.4763C46.3318 27.4763 40.3953 19.5798 40.3953 19.3563C40.3953 19.1571 42.2167 18.3418 44.0581 17.7161C45.9147 17.0856 47.8252 17.2398 50.2849 18.2185ZM41.2537 31.5795L46.5 27.6594L51.75 31.5822L57 35.5049V28.4524V21.4001L59.564 22.6699L62.1279 23.9397V49.295V74.6504H46.5H30.8721V49.295V23.9395L33.375 22.7001L35.8779 21.4606L35.9426 28.4801L36.0073 35.4993L41.2537 31.5795ZM25.5 34.1634V40.8504H22.936H20.3721V38.649C20.3721 34.4012 21.5076 31.1783 23.8158 28.8745C24.5863 28.1056 25.2805 27.4763 25.3584 27.4763C25.4363 27.4763 25.5 30.4855 25.5 34.1634ZM69.8144 29.4812C71.6172 31.5785 72.6279 34.8722 72.6279 38.649V40.8504H70.064H67.5V34.1468V27.4432L68.2204 27.9539C68.6164 28.2347 69.3338 28.9222 69.8144 29.4812ZM45.2791 33.242C44.6618 33.5562 44.3287 33.9528 44.0796 34.6701C43.7666 35.572 43.7776 35.7502 44.2017 36.6154C44.5577 37.3413 44.903 37.6484 45.6551 37.9074C46.5332 38.2096 46.7388 38.2009 47.5285 37.8276C48.7709 37.2406 49.3423 36.0063 48.9599 34.7353C48.4833 33.1515 46.7991 32.4682 45.2791 33.242ZM45.2791 43.6981C44.6618 44.0123 44.3287 44.4089 44.0796 45.1262C43.7666 46.0281 43.7776 46.2064 44.2017 47.0715C44.5577 47.7974 44.903 48.1045 45.6551 48.3635C46.5332 48.6657 46.7388 48.657 47.5285 48.2837C48.7709 47.6967 49.3423 46.4624 48.9599 45.1914C48.4833 43.6076 46.7991 42.9243 45.2791 43.6981ZM45.2791 54.1542C44.6618 54.4684 44.3287 54.865 44.0796 55.5823C43.7666 56.4842 43.7776 56.6625 44.2017 57.5276C44.5577 58.2535 44.903 58.5606 45.6551 58.8196C46.5332 59.1218 46.7388 59.1131 47.5285 58.7398C48.7709 58.1528 49.3423 56.9185 48.9599 55.6475C48.4833 54.0637 46.7991 53.3805 45.2791 54.1542ZM45.2791 64.6103C44.6618 64.9245 44.3287 65.3211 44.0796 66.0384C43.7666 66.9403 43.7776 67.1186 44.2017 67.9837C44.5577 68.7096 44.903 69.0167 45.6551 69.2757C46.5332 69.5779 46.7388 69.5692 47.5285 69.1959C48.7709 68.6089 49.3423 67.3746 48.9599 66.1036C48.4833 64.5199 46.7991 63.8366 45.2791 64.6103Z" fill="#D5C4B3"/>
</svg>
