<svg width="92" height="92" viewBox="0 0 92 92" fill="none" xmlns="http://www.w3.org/2000/svg">
<path fill-rule="evenodd" clip-rule="evenodd" d="M22.9985 24.2161C21.3288 24.6677 20.1787 25.6918 19.3858 27.4333C19.0196 28.2371 19.0083 28.7916 19.0042 46.0224L19 63.7827L19.6285 64.9927C20.3854 66.4499 21.7642 67.5179 23.2988 67.8355C23.9794 67.9762 31.4379 68.0243 47.0779 67.9888C68.2312 67.9407 69.9183 67.9133 70.6035 67.6043C71.8829 67.0278 72.7948 66.1586 73.4115 64.9286L74 63.7551V45.9911V28.2272L73.4115 27.0536C72.7948 25.8237 71.8829 24.9545 70.6035 24.3779C69.9175 24.0688 68.2406 24.0425 46.8846 24.0082C28.7458 23.9791 23.7131 24.0229 22.9985 24.2161ZM68.6154 45.9911V62.4745H46.5H24.3846V45.9911V29.5077H46.5H68.6154V45.9911ZM29.9615 39.1869V43.3078H34.0962H38.2308V39.1869V35.0661H34.0962H29.9615V39.1869ZM46.5 40.5286V43.3078H54.7692H63.0385V40.5286V37.7494H54.7692H46.5V40.5286ZM29.9615 54.2328V56.9162H32.75H35.5385V54.2328V51.5495H32.75H29.9615V54.2328ZM38.2308 54.2328V56.9162H41.0192H43.8077V54.2328V51.5495H41.0192H38.2308V54.2328ZM46.5 54.2328V56.9162H49.2885H52.0769V54.2328V51.5495H49.2885H46.5V54.2328ZM54.7692 54.2328V56.9162H57.5577H60.3462V54.2328V51.5495H57.5577H54.7692V54.2328Z" fill="#D5C4B3"/>
</svg>
