<svg width="61" height="65" viewBox="0 0 61 65" fill="none" xmlns="http://www.w3.org/2000/svg">
<path fill-rule="evenodd" clip-rule="evenodd" d="M28.0382 0.369785C27.447 0.602171 26.4162 1.27565 25.7478 1.86623L24.5324 2.93999L22.923 2.58496C21.1103 2.1851 19.8583 2.28089 18.3544 2.93407C16.2983 3.82703 15.1175 5.20316 14.2885 7.67271C13.856 8.96151 13.822 8.99873 12.8416 9.2622C11.326 9.66967 10.0057 10.3947 9.13614 11.2972C7.44648 13.0508 6.92542 15.0069 7.40233 17.8059L7.68408 19.4593L6.70637 20.4954C5.2428 22.0466 4.60017 23.5875 4.60379 25.5356C4.60742 27.4587 5.02418 28.4855 6.53489 30.2932L7.59514 31.562L7.32619 32.8307C6.79084 35.3546 7.13401 37.287 8.40392 38.9006L9.11843 39.8086L4.55922 44.3658C0.0819019 48.8412 0 48.9389 0 49.8073C0 51.4383 0.515941 51.7559 5.84896 53.4073L10.5248 54.8553L11.7901 59.2789C13.1323 63.9715 13.5126 64.7092 14.7247 64.9731C15.057 65.0454 15.6233 64.9674 16.0276 64.7932C16.4421 64.6147 19.5238 61.7189 23.3536 57.9089C28.5233 52.7662 30.0809 51.3327 30.5 51.3327C30.9191 51.3327 32.4767 52.7662 37.6464 57.9089C41.4762 61.7189 44.5579 64.6147 44.9724 64.7932C45.3767 64.9674 45.943 65.0454 46.2753 64.9731C47.4872 64.7092 47.8679 63.971 49.2076 59.2867L50.4707 54.8708L55.1489 53.42C60.4836 51.7656 61 51.4467 61 49.8075C61 48.9391 60.9202 48.8439 56.4847 44.4292L51.9694 39.9353L52.5302 39.1317C53.6913 37.4684 54.072 35.0325 53.5143 32.8366L53.2801 31.9149L54.444 30.555C55.918 28.8321 56.4175 27.5799 56.4039 25.6413C56.3909 23.8226 55.7557 22.3278 54.3322 20.7669L53.3581 19.6986L53.6565 18.4409C54.2373 15.9929 53.9447 14.1393 52.6923 12.335C51.7884 11.0325 50.6097 10.2114 48.826 9.64197L47.3703 9.17719L46.7755 7.47099C46.2856 6.06589 45.9731 5.55481 45.0054 4.57515C43.1255 2.67208 41.1914 2.16015 38.0497 2.73403L36.699 2.9808L35.656 2.01362C34.0401 0.515053 33.0511 0.0974347 30.9266 0.016237C29.4958 -0.0383177 28.8869 0.0361137 28.0382 0.369785ZM31.7855 4.746C32.0755 4.94159 32.9067 5.64637 33.6325 6.31223C34.3584 6.97788 35.223 7.58158 35.5543 7.65368C35.8855 7.72579 37.0967 7.59299 38.2461 7.35849C41.4429 6.70659 41.7905 6.93411 42.9557 10.4398C43.2691 11.3826 43.7381 12.346 43.9978 12.5805C44.2576 12.8148 45.1421 13.2204 45.9633 13.4815C48.2533 14.2102 48.7785 14.5073 49.1504 15.2848C49.4676 15.9475 49.4614 16.1327 49.0604 17.9546C48.3815 21.0384 48.2606 20.6552 50.9222 23.8509C51.644 24.7172 51.8287 25.1063 51.8287 25.7586C51.8287 26.6106 51.6416 26.8901 49.5437 29.174C48.4816 30.3305 48.4255 30.757 48.9757 33.5046C49.5442 36.3444 49.2579 36.7821 46.1646 37.8038C44.9732 38.1971 43.8833 38.698 43.631 38.9681C43.3874 39.2286 42.9139 40.2854 42.5789 41.3167C41.589 44.3624 41.0592 44.6549 37.8454 43.9289C36.7252 43.6761 35.5796 43.5259 35.2996 43.5957C35.0198 43.6653 34.0209 44.3796 33.0801 45.1829C30.5137 47.3744 30.0903 47.36 27.4656 44.9907C25.7768 43.4663 25.2269 43.3174 23.074 43.8029C19.7538 44.5517 19.115 44.2085 18.2025 41.1868C17.8811 40.1222 17.4144 39.0332 17.1655 38.767C16.9043 38.4874 15.8508 37.9981 14.6731 37.6091C11.5834 36.5886 11.2991 36.0984 11.9795 32.9645C12.2288 31.8159 12.3698 30.6358 12.2936 30.3349C12.2177 30.0348 11.484 29.0165 10.6635 28.0719C9.39485 26.6119 9.17133 26.2367 9.17133 25.5692C9.17133 24.6549 9.44434 24.2144 11.1297 22.4088C12.261 21.197 12.3706 20.9953 12.3706 20.1247C12.3706 19.5995 12.2173 18.5016 12.03 17.6848C11.6265 15.9263 11.7623 14.9238 12.4798 14.3643C12.7659 14.1412 13.8421 13.7002 14.8714 13.3842C15.9007 13.0681 16.9557 12.6146 17.2152 12.3763C17.4759 12.1373 17.9809 11.0703 18.3416 9.99699C19.3588 6.97027 19.8984 6.62835 22.7432 7.20836C25.7977 7.8313 25.8617 7.81269 28.5781 5.50046C30.0107 4.28102 30.8154 4.09177 31.7855 4.746ZM33.4444 24.8407L27.945 30.278L24.9929 27.3782C22.1805 24.6153 22.0003 24.4783 21.1804 24.4783C19.5358 24.4783 18.4293 26.039 19.057 27.4733C19.2267 27.8613 21.0424 29.8304 23.0919 31.8491C26.6854 35.3888 26.8539 35.5235 27.8215 35.6316L28.8248 35.7438L35.2305 29.4237C38.9289 25.7749 41.7662 22.8057 41.9441 22.3985C42.5718 20.9597 41.4638 19.4034 39.8119 19.4034C38.9615 19.4034 38.8306 19.5153 33.4444 24.8407ZM14.1055 43.4424C14.9303 46.1063 16.7057 47.8579 19.2521 48.52C20.5566 48.8592 20.7686 48.8604 22.429 48.5401L24.208 48.1967L24.7935 48.7634L25.3788 49.3299L20.8294 53.8365L16.2797 58.3434L15.3609 55.1537C14.7385 52.9935 14.2868 51.81 13.9613 51.4873C13.6495 51.178 12.2943 50.6457 10.0996 49.9701C8.24012 49.3977 6.67502 48.896 6.62213 48.8549C6.46621 48.7342 13.308 42.0214 13.5164 42.0904C13.6209 42.1248 13.8858 42.7332 14.1055 43.4424ZM51.1811 45.5102C52.9926 47.3088 54.431 48.8139 54.3779 48.8549C54.325 48.896 52.7599 49.3977 50.9004 49.9701C48.7057 50.6457 47.3505 51.178 47.0387 51.4873C46.713 51.81 46.2612 52.9935 45.6389 55.1545L44.7196 58.3453L40.1192 53.7843L35.5189 49.2235L35.9804 48.7657C36.4121 48.3379 36.5219 48.324 37.6658 48.5517C42.0305 49.4208 45.2048 47.7869 46.5042 44.0023C46.7371 43.324 46.9717 42.6501 47.0252 42.5046C47.2671 41.85 48.1058 42.4566 51.1811 45.5102Z" fill="#D5C4B3"/>
</svg>
