<svg width="92" height="92" viewBox="0 0 92 92" fill="none" xmlns="http://www.w3.org/2000/svg">
<path fill-rule="evenodd" clip-rule="evenodd" d="M16.1525 18.309C13.7837 19.0208 11.7063 21.3404 11.1895 23.8501C11.0273 24.6379 10.971 30.9362 11.0138 43.5373L11.0765 62.0663L11.6957 63.3376C12.4676 64.9221 14.2737 66.6226 15.7452 67.1503C16.3464 67.3659 17.3869 67.5435 18.0573 67.5451L19.2761 67.5478L19.802 68.7726C20.4467 70.2738 21.6926 71.7352 23.0954 72.6351C27.4352 75.4197 33.2368 73.7257 35.5442 69.0005L36.2572 67.5402H45.9877H55.7182L56.3206 68.8235C58.1821 72.7911 62.5674 74.8551 66.6054 73.6647C69.0493 72.9441 71.1695 71.0765 72.1587 68.7726L72.6846 67.5478L73.9035 67.5451C75.5753 67.5413 77.0985 66.9414 78.3781 65.7827C79.6884 64.5961 80.4282 63.3474 80.7515 61.7761C81.1079 60.0443 81.0713 50.0541 80.7036 48.6537C80.5434 48.0433 79.2718 44.9429 77.8781 41.764C75.0869 35.3977 74.3649 34.2931 72.2653 33.1765L71.1333 32.5743L64.9282 32.4626L58.7231 32.3509L58.6123 27.7707C58.5088 23.4973 58.4655 23.1168 57.9645 22.0906C57.2478 20.6223 55.9593 19.3642 54.4344 18.6434L53.1828 18.0518L35.2322 18.0107C19.7382 17.9754 17.1272 18.016 16.1525 18.309ZM53.1238 23.5074L53.8476 24.1591L53.9066 43.5038L53.9657 62.8483L45.0421 62.8445L36.1186 62.8407L35.587 61.6027C34.7914 59.7503 33.3851 58.3094 31.4136 57.3272C29.8426 56.5444 29.605 56.4907 27.6974 56.4907C25.7886 56.4907 25.5529 56.5439 23.9754 57.3299C22.0164 58.3061 20.5763 59.7994 19.7841 61.6766L19.2761 62.8802L18.1812 62.7812C17.3005 62.7017 16.9645 62.5449 16.4637 61.9798L15.8412 61.2771V42.9452C15.8412 29.8836 15.9123 24.4732 16.0887 24.1253C16.2248 23.857 16.549 23.4638 16.8089 23.2513C17.2477 22.8929 18.5384 22.865 34.8408 22.8603L52.4 22.8554L53.1238 23.5074ZM32.1296 31.1992C27.0155 32.8994 24.2489 38.1604 25.8082 43.2194C26.6325 45.8935 28.4176 47.9207 31.0371 49.1575C32.2353 49.7232 32.5764 49.778 34.9044 49.778C37.3493 49.778 37.5212 49.7465 38.9555 49.0346C41.7483 47.6485 43.7268 44.9464 44.264 41.7845C44.9322 37.8518 42.6715 33.5981 38.9251 31.7387C37.6221 31.0919 37.2464 31.0126 35.2451 30.9614C33.8456 30.9255 32.6863 31.0139 32.1296 31.1992ZM35.8656 35.2554C36.8096 35.707 37.1427 36.3151 37.2797 37.8378C37.3856 39.0152 37.472 39.1841 38.345 39.9196C39.4623 40.8614 39.7198 41.6833 39.2511 42.8139C38.913 43.6302 37.9474 44.3041 37.1159 44.3041C36.1144 44.3041 33.0216 42.1838 32.6724 41.2579C32.5567 40.9512 32.462 39.8472 32.462 38.8045C32.462 36.6715 32.7785 35.7954 33.7392 35.27C34.5179 34.8439 34.9988 34.8408 35.8656 35.2554ZM70.3537 37.6572C70.9388 38.0623 71.376 38.8309 72.6026 41.6121C73.4399 43.5107 74.1251 45.0943 74.1251 45.131C74.1251 45.1678 70.6347 45.1978 66.3687 45.1978H58.6123V41.1762V37.1545H64.1198C69.4684 37.1545 69.6483 37.1691 70.3537 37.6572ZM76.1196 55.6951V61.2771L75.4971 61.9798C74.9963 62.5449 74.6603 62.7017 73.7796 62.7812L72.6846 62.8802L72.1767 61.6766C70.7289 58.2464 66.9356 56.0513 63.2085 56.4874C62.309 56.5926 61.3175 56.9278 60.2356 57.4921L58.6123 58.3391V54.2261V50.1131H67.3659H76.1196V55.6951ZM30.0773 62.0066C32.3537 63.7572 31.9535 67.7374 29.3927 68.8161C28.2709 69.2887 26.3179 69.114 25.4064 68.4596C23.1816 66.8625 23.3485 63.1635 25.7073 61.7825C26.951 61.0546 28.9741 61.1583 30.0773 62.0066ZM66.2534 61.7953C67.5727 62.5484 68.1768 63.7522 68.0864 65.4467C67.9614 67.7835 66.5207 69.1041 64.0965 69.1041C62.6972 69.1041 61.7066 68.5538 60.8698 67.3114C60.4224 66.6471 60.3583 66.3212 60.4268 65.0579C60.5186 63.3671 61.1497 62.2908 62.4195 61.6601C63.4928 61.1268 65.1875 61.1867 66.2534 61.7953Z" fill="#D5C4B3"/>
</svg>
