<svg xmlns="http://www.w3.org/2000/svg" width="962.39465pt" height="215.95259pt" fill-rule="evenodd" viewBox="0 0 962.39465 215.95259"><g style="stroke-width:.801738"><path d="M300.597 778.58h-4.346v-23.83h-.086l-8.015 23.83h-4.312l-7.969-23.83h-.13v23.83h-4.343v-30.61h6.434l8.142 24.68h.18l8.051-24.68h6.394zM333.297 763.18c0 2.14-.272 4.16-.81 6.08-.539 1.92-1.368 3.6-2.472 5.05-1.135 1.45-2.586 2.6-4.349 3.45-1.76.86-3.879 1.28-6.357 1.28-2.298 0-4.322-.4-6.069-1.21-1.754-.81-3.205-1.93-4.374-3.35-1.167-1.42-2.044-3.1-2.645-5.03-.594-1.93-.885-4.02-.885-6.27 0-2.07.291-4.06.885-5.97.601-1.9 1.478-3.57 2.645-5.03 1.17-1.44 2.62-2.6 4.374-3.45 1.747-.85 3.771-1.28 6.07-1.28 2.307 0 4.33.41 6.074 1.22 1.751.81 3.205 1.92 4.371 3.35 1.17 1.42 2.048 3.08 2.642 4.98.597 1.91.9 3.97.9 6.18zm-4.649-.04c0-1.59-.189-3.1-.576-4.54-.377-1.44-.956-2.69-1.728-3.77a8.793 8.793 0 0 0-2.893-2.54c-1.166-.64-2.552-.96-4.142-.96-1.42 0-2.703.3-3.857.9a8.507 8.507 0 0 0-2.914 2.47c-.829 1.09-1.457 2.34-1.88 3.77-.422 1.44-.64 3.01-.64 4.71 0 1.6.178 3.12.537 4.57.356 1.45.916 2.72 1.673 3.83.78 1.11 1.742 2 2.908 2.67 1.17.67 2.555 1 4.173 1 1.56 0 2.93-.3 4.1-.91a8.424 8.424 0 0 0 2.935-2.59c.772-1.08 1.351-2.36 1.728-3.83.387-1.48.576-3.07.576-4.78zM360.577 778.58h-5.75l-11.983-13.52h-.255v13.52h-4.602v-30.66h4.602v12.32h.255l10.66-12.32h5.33l-12.709 14.45zM382.751 757.05c0 1.82-.356 3.32-1.049 4.51-.696 1.2-1.58 2.15-2.66 2.86-1.083.74-2.296 1.25-3.65 1.54-1.346.28-2.679.42-3.985.42h-2.518v-4.18h2.475c.792 0 1.584-.07 2.37-.21.782-.14 1.485-.4 2.106-.76.597-.4 1.086-.94 1.476-1.61.386-.66.575-1.52.575-2.57 0-.94-.21-1.72-.643-2.35a5.257 5.257 0 0 0-1.62-1.54 7.572 7.572 0 0 0-2.26-.85c-.826-.17-1.652-.25-2.47-.25h-3.537v26.56h-4.606v-30.65h8.182c1.426 0 2.84.14 4.244.42 1.408.29 2.663.77 3.774 1.45a8.249 8.249 0 0 1 2.747 2.82c.693 1.16 1.05 2.62 1.05 4.39zM412.592 763.18c0 2.14-.269 4.16-.813 6.08-.539 1.92-1.36 3.6-2.469 5.05-1.14 1.45-2.586 2.6-4.349 3.45-1.76.86-3.879 1.28-6.357 1.28-2.298 0-4.325-.4-6.069-1.21-1.75-.81-3.208-1.93-4.37-3.35-1.17-1.42-2.049-3.1-2.646-5.03-.597-1.93-.897-4.02-.897-6.27 0-2.07.3-4.06.897-5.97.597-1.9 1.475-3.57 2.645-5.03 1.163-1.44 2.62-2.6 4.371-3.45 1.744-.85 3.771-1.28 6.07-1.28 2.303 0 4.33.41 6.074 1.22 1.754.81 3.205 1.92 4.371 3.35 1.163 1.42 2.051 3.08 2.642 4.98.597 1.91.9 3.97.9 6.18zm-4.649-.04c0-1.59-.192-3.1-.576-4.54-.386-1.44-.962-2.69-1.723-3.77a8.871 8.871 0 0 0-2.9-2.54c-1.164-.64-2.544-.96-4.14-.96-1.42 0-2.703.3-3.854.9a8.512 8.512 0 0 0-2.92 2.47 11.854 11.854 0 0 0-1.878 3.77c-.427 1.44-.637 3.01-.637 4.71 0 1.6.172 3.12.535 4.57.352 1.45.912 2.72 1.68 3.83.767 1.11 1.732 2 2.898 2.67 1.166.67 2.555 1 4.176 1 1.568 0 2.93-.3 4.098-.91a8.514 8.514 0 0 0 2.942-2.59c.761-1.08 1.337-2.36 1.723-3.83.384-1.48.576-3.07.576-4.78zM449.292 770.01c0 3.06-1.046 5.34-3.149 6.82-2.104 1.48-4.966 2.21-8.569 2.21-.715 0-1.417-.04-2.116-.13-.69-.08-1.383-.18-2.066-.29-.68-.15-1.349-.29-2.002-.45-.653-.16-1.265-.32-1.83-.49v-4.56c.34.14.763.32 1.277.53.513.21 1.122.42 1.828.62.715.2 1.506.37 2.388.51.878.14 1.865.21 2.945.21.792 0 1.571-.07 2.323-.21.758-.14 1.426-.39 2.026-.77.57-.34 1.03-.8 1.383-1.39.352-.58.538-1.29.538-2.15 0-.82-.167-1.52-.492-2.1a4.769 4.769 0 0 0-1.259-1.47 7.911 7.911 0 0 0-1.704-1.09c-.63-.3-1.24-.6-1.832-.92-.995-.45-2.059-.97-3.182-1.54a21.185 21.185 0 0 1-3.168-1.95 10.226 10.226 0 0 1-2.416-2.48c-.637-.94-.956-2.03-.956-3.28 0-2.79.956-4.85 2.877-6.18 1.921-1.34 4.386-2.01 7.393-2.01.718 0 1.43.05 2.16.15.717.1 1.422.23 2.103.37.655.17 1.29.33 1.9.49.61.15 1.16.29 1.645.4v4.6c-.77-.39-1.863-.79-3.286-1.19-1.419-.4-3.025-.64-4.819-.72-1.45 0-2.642.31-3.582.93-.928.63-1.4 1.57-1.4 2.82 0 .6.122 1.11.38 1.53.252.43.593.81 1.02 1.15.427.34.922.66 1.472.94l1.73.9 3.198 1.49c.681.42 1.435.85 2.252 1.28.83.42 1.605.93 2.348 1.53.711.63 1.318 1.41 1.813 2.35.501.93.773 2.11.83 3.54zM476.451 757.34h-4.817c0-1.04-.127-1.91-.364-2.59a5.637 5.637 0 0 0-.999-1.8c-.486-.54-1.15-.93-2.008-1.19a9.696 9.696 0 0 0-2.47-.43c-1.307 0-2.523.27-3.646.79a8.452 8.452 0 0 0-2.917 2.28c-.853 1-1.512 2.2-1.982 3.62-.474 1.43-.709 3.05-.709 4.87 0 .99.13 2.18.362 3.58.248 1.39.731 2.73 1.476 4 .74 1.28 1.785 2.38 3.133 3.31 1.346.92 3.137 1.4 5.352 1.43 1.874.03 3.532-.25 4.965-.81 1.434-.57 2.663-1.21 3.683-1.92v4.56c-.365.17-.81.38-1.342.62-.523.24-1.162.46-1.893.65-.739.23-1.618.42-2.642.56-1.023.15-2.223.22-3.584.22-2.503 0-4.64-.48-6.44-1.43-1.792-.95-3.267-2.2-4.43-3.73-1.167-1.56-2.027-3.32-2.584-5.27a21.632 21.632 0 0 1-.826-5.95 19 19 0 0 1 .872-5.75c.585-1.85 1.461-3.47 2.62-4.86 1.17-1.42 2.63-2.55 4.39-3.39 1.76-.84 3.826-1.26 6.19-1.26 2.215 0 4.188.5 5.924 1.47 1.73.98 3.022 2.35 3.875 4.08.286.51.483 1.15.595 1.93.12.79.186 1.59.216 2.41zM486.007 778.58h-4.82v-30.66h4.82zM510.852 778.58h-17.947v-30.66h17.526v4.1h-12.834v8.48h12.321v4.09h-12.32v9.89h13.254zM537.505 778.58h-5.503l-11.81-23.67h-.174v23.67h-4.516v-30.66h5.63l11.723 23.79h.13v-23.79h4.52zM566.83 757.34h-4.817c0-1.04-.12-1.91-.362-2.59a5.7 5.7 0 0 0-1.002-1.8c-.479-.54-1.154-.93-2.005-1.19-.85-.26-1.67-.4-2.467-.43-1.316 0-2.525.27-3.648.79-1.129.53-2.095 1.29-2.923 2.28-.85 1-1.51 2.2-1.983 3.62-.47 1.43-.7 3.05-.7 4.87 0 .99.122 2.18.36 3.58.247 1.39.732 2.73 1.472 4 .746 1.28 1.785 2.38 3.137 3.31 1.348.92 3.13 1.4 5.351 1.43 1.868.03 3.53-.25 4.962-.81 1.435-.57 2.66-1.21 3.687-1.92v4.56c-.368.17-.819.38-1.342.62-.529.24-1.16.46-1.9.65-.736.23-1.617.42-2.642.56-1.023.15-2.214.22-3.58.22-2.498 0-4.648-.48-6.436-1.43-1.79-.95-3.266-2.2-4.433-3.73-1.169-1.56-2.029-3.32-2.583-5.27a21.52 21.52 0 0 1-.828-5.95c0-1.98.294-3.9.875-5.75s1.451-3.47 2.617-4.86c1.17-1.42 2.632-2.55 4.396-3.39 1.76-.84 3.823-1.26 6.183-1.26 2.215 0 4.186.5 5.924 1.47 1.726.98 3.026 2.35 3.876 4.08.284.51.486 1.15.6 1.93.111.79.183 1.59.211 2.41zM589.297 778.58h-17.949v-30.66h17.525v4.1H576.04v8.48h12.323v4.09H576.04v9.89h13.258zM630.184 767.07c0 1.24-.17 2.57-.513 3.98-.34 1.41-.94 2.71-1.794 3.9-.854 1.2-2.005 2.18-3.477 2.96-1.457.78-3.319 1.18-5.558 1.18-2.302 0-4.186-.39-5.646-1.16-1.47-.76-2.599-1.73-3.394-2.89a10.83 10.83 0 0 1-1.685-3.91c-.298-1.4-.446-2.76-.446-4.06v-19.1h4.776v19.01c0 1 .084 1.97.254 2.92.17.95.498 1.81.983 2.58.483.77 1.133 1.38 1.961 1.86.824.46 1.884.7 3.197.7 1.25 0 2.297-.23 3.132-.68a5.65 5.65 0 0 0 2.024-1.84c.516-.77.872-1.63 1.09-2.6.212-.97.317-1.94.317-2.94v-19.01h4.78zM658.575 778.58h-5.5l-11.81-23.67h-.168v23.67h-4.515v-30.66h5.623l11.72 23.79h.127v-23.79h4.523zM670.173 778.58h-4.814v-30.66h4.814zM699.841 747.97l-10.7 30.65h-5.114l-10.746-30.65h5.033l8.138 24.81.35-.05 8.142-24.76zM720.603 778.58h-17.948v-30.66h17.524v4.1h-12.835v8.48h12.322v4.09h-12.322v9.89h13.26zM746.011 778.62h-4.819l-1.234-5.89c-.396-1.78-.97-3.28-1.726-4.47-.752-1.19-1.682-2-2.793-2.43-.254.02-.508.05-.767.05h-3.24v-4.1h2.43c.828 0 1.626-.07 2.412-.19a5.698 5.698 0 0 0 2.067-.75 3.785 3.785 0 0 0 1.49-1.49c.368-.66.554-1.51.554-2.56 0-.94-.208-1.72-.616-2.34a4.045 4.045 0 0 0-1.642-1.45 7.4 7.4 0 0 0-2.218-.79c-.826-.16-1.649-.24-2.472-.24h-3.539v26.61h-4.6v-30.7h8.186c1.416 0 2.833.14 4.237.41 1.408.26 2.664.73 3.775 1.38a7.7 7.7 0 0 1 2.753 2.71c.695 1.15 1.042 2.62 1.042 4.41 0 2.02-.433 3.64-1.285 4.86a8.485 8.485 0 0 1-3.238 2.81c.798.71 1.563 1.63 2.308 2.75.733 1.13 1.244 2.44 1.528 3.94zM768.825 770.01c0 3.06-1.058 5.34-3.155 6.82-2.11 1.48-4.962 2.21-8.572 2.21-.709 0-1.41-.04-2.11-.13-.695-.08-1.389-.18-2.065-.29-.688-.15-1.356-.29-2.008-.45a37.12 37.12 0 0 1-1.835-.49v-4.56c.341.14.77.32 1.281.53.517.21 1.126.42 1.831.62.715.2 1.51.37 2.392.51.88.14 1.861.21 2.941.21.795 0 1.566-.07 2.323-.21.748-.14 1.43-.39 2.023-.77.576-.34 1.034-.8 1.39-1.39.35-.58.528-1.29.528-2.15 0-.82-.164-1.52-.49-2.1a4.535 4.535 0 0 0-1.254-1.47 8.138 8.138 0 0 0-1.704-1.09c-.625-.3-1.242-.6-1.835-.92-.996-.45-2.054-.97-3.177-1.54a21.958 21.958 0 0 1-3.177-1.95 10.223 10.223 0 0 1-2.403-2.48c-.647-.94-.965-2.03-.965-3.28 0-2.79.965-4.85 2.876-6.18 1.921-1.34 4.384-2.01 7.4-2.01.707 0 1.43.05 2.156.15.72.1 1.422.23 2.11.37.655.17 1.283.33 1.893.49.612.15 1.16.29 1.642.4v4.6c-.767-.39-1.862-.79-3.285-1.19-1.42-.4-3.026-.64-4.816-.72-1.449 0-2.645.31-3.58.93-.94.63-1.404 1.57-1.404 2.82 0 .6.12 1.11.38 1.53.254.43.6.81 1.024 1.15.421.34.91.66 1.467.94.553.29 1.128.59 1.734.9l3.196 1.49c.678.42 1.43.85 2.253 1.28.835.42 1.608.93 2.347 1.53a8.263 8.263 0 0 1 1.813 2.35c.495.93.77 2.11.835 3.54zM778.244 778.58h-4.819v-30.66h4.82zM803.607 752.1h-8.562v26.6h-4.697v-26.6h-8.478v-4.05h21.737z" style="fill:#373531;stroke:none;stroke-width:.801738" transform="matrix(1.24729 0 0 1.24729 -79.271 -783.38)"/><path d="m828.081 747.97-10.446 16.84v13.85h-4.69v-13.85l-10.359-16.84h5.377l7.495 12.4 7.584-12.4zM339.954 701.622h-78.209v-9.224h34.265v-7.037h-16.905v-31.883h43.49v31.883h-16.627v7.037h33.986zm-16.908 35.817h-9.772v-20.83H278.28v-9.32h44.767zm-10.227-61.216v-13.52H288.79v13.52zM422 723.1h-77.935v-9.14h34.076v-13.89h9.683v13.89H422zm-13.439-24.036h-51.887v-9.317h10.05c0-1.036-.012-2.159-.049-3.38a184.873 184.873 0 0 0-.13-3.654c-.062-2.617-.508-4.693-1.33-6.215-.817-1.522-1.39-2.499-1.693-2.926l8.588-3.743c.367.547 1.054 1.825 2.063 3.84 1 2.007 1.658 4.716 1.958 8.125.124 1.467.195 2.88.23 4.25.033 1.374.045 2.608.045 3.703h12.698v-21.103h-31.608v-9.05h50.344v9.05h-9.05v21.103h9.771zM481.654 710.31c-2.616.48-5.175.91-7.668 1.27-2.503.37-5.24.7-8.229 1.01-2.979.24-6.38.45-10.189.59-3.799.15-8.262.23-13.379.23h-17.638v-9.229h17.181v-21.378h9.685v21.378c4.501 0 9.518-.288 15.03-.866 5.507-.582 10.58-1.324 15.207-2.24zm-9.957-50.256c0 7.981-.307 14.814-.913 20.51-.607 5.7-1.584 11.008-2.923 15.94h-10.505c1.46-4.075 2.481-8.55 3.06-13.426.575-4.872.923-9.506 1.054-13.889h-30.157v-9.135zm36.641 30.791h-14.985v42.484h-9.778v-83.143h9.778v31.518h14.985zM557.673 675.313H536.75c-2.197 0-4.13.18-5.803.545-1.674.365-3.242 1.343-4.705 2.923-1.58 1.65-2.348 3.721-2.286 6.218.064 2.496 1.008 4.445 2.83 5.846 1.89 1.457 4.176 2.116 6.858 1.965 2.676-.152 4.807-1.02 6.397-2.608 1.095-.975 1.624-2.345 1.596-4.108-.028-1.766-1.024-3.168-2.966-4.207l7.031-6.21c1.343.914 2.5 2.087 3.473 3.52a12.076 12.076 0 0 1 1.92 4.701c.305 1.77.24 3.61-.184 5.531-.427 1.915-1.339 3.82-2.74 5.704-1.28 1.71-3.017 3.096-5.207 4.16a24.016 24.016 0 0 1-7.034 2.15c-2.505.303-5.03.244-7.585-.182-2.558-.427-4.782-1.343-6.669-2.744-2.134-1.463-3.752-3.199-4.84-5.206-1.099-2.008-1.8-4.052-2.105-6.122a16.191 16.191 0 0 1 .322-5.849c.452-1.885 1.194-3.47 2.24-4.749 0-.062.145-.247.451-.547.31-.303.61-.55.913-.73h-10.14v-8.405h49.156zm-10.236-11.88c-1.515.061-4.02.126-7.486.182-3.48.065-7.22 0-11.24-.183-3.35-.24-6.02-.835-7.997-1.779-1.977-.943-3.276-1.658-3.879-2.143l3.102-7.498c.307.123.765.306 1.367.55a27.89 27.89 0 0 0 2.107.73c.851.241 1.794.473 2.831.687 1.036.216 2.165.346 3.375.411 3.535.183 6.993.238 10.375.183 3.384-.059 5.865-.152 7.445-.275zm26.774 74.006h-9.593V715.6h-35.175v-9.225h44.768zm15.531-55.914h-14.344v21.198h-9.868v-52.537h9.868v22.108h14.344zM635.24 707.93H597.96V661.7h33.35v9.224h-23.662v27.682h27.59zm32.067 25.4h-9.678v-45.136h-9.599v39.475h-9.683v-75.657h9.683v26.955h9.6v-28.78h9.677zM722.128 675.313h-20.923c-2.197 0-4.13.18-5.807.545-1.667.365-3.24 1.343-4.7 2.923-1.589 1.65-2.353 3.721-2.284 6.218.058 2.496 1.002 4.445 2.83 5.846 1.887 1.457 4.17 2.116 6.855 1.965 2.675-.152 4.81-1.02 6.391-2.608 1.101-.975 1.633-2.345 1.605-4.108-.037-1.766-1.024-3.168-2.969-4.207l7.031-6.21c1.34.914 2.496 2.087 3.474 3.52a12.031 12.031 0 0 1 1.911 4.701c.306 1.77.251 3.61-.179 5.531-.427 1.915-1.343 3.82-2.744 5.704-1.275 1.71-3.01 3.096-5.209 4.16-2.188 1.067-4.532 1.782-7.029 2.15a26.532 26.532 0 0 1-7.587-.182c-2.552-.427-4.78-1.343-6.663-2.744-2.138-1.463-3.746-3.199-4.844-5.206-1.096-2.008-1.794-4.052-2.1-6.122a16.213 16.213 0 0 1 .315-5.849c.454-1.885 1.203-3.47 2.24-4.749 0-.062.153-.247.46-.547.304-.303.603-.55.91-.73h-10.138v-8.405h49.154zm-10.239-11.88c-1.519.061-4.015.126-7.489.182-3.47.065-7.217 0-11.238-.183-3.35-.24-6.017-.835-7.996-1.779-1.98-.943-3.27-1.658-3.879-2.143l3.108-7.498c.297.123.758.306 1.37.55.61.244 1.303.486 2.101.73a39.88 39.88 0 0 0 2.831.687c1.032.216 2.165.346 3.384.411 3.53.183 6.987.238 10.362.183 3.381-.059 5.865-.152 7.446-.275zm26.776 74.006h-9.596V715.6h-35.174v-9.225h44.77zm15.53-55.914h-14.343v21.198h-9.87v-52.537h9.87v22.108h14.342zM835.143 723.1h-78.212v-9.23h19.098v-24.853h9.775v24.852h7.951v-24.852h9.868v24.852h31.52zm-15.349-45.23c0 4.444-.303 8.923-.913 13.433-.615 4.504-1.923 9.042-3.928 13.611h-10.42c2.381-5.178 3.902-10.05 4.574-14.619.665-4.569 1-9.073 1-13.52v-8.13H772.38v-9.135h47.414z" style="fill:#373531;stroke:none;stroke-width:.801738" transform="matrix(1.24729 0 0 1.24729 -79.271 -783.38)"/><path d="m150.82 628.072-.702-.006c-47.73 0-86.563 38.831-86.563 86.563 0 47.61 38.638 86.37 86.204 86.57h.372c47.731 0 86.564-38.83 86.564-86.56 0-47.504-38.46-86.193-85.875-86.567zm79.985 85.097h-21.291c-.009-.83-.053-1.65-.084-2.48a76.05 76.05 0 0 0-.074-2.08 91.752 91.752 0 0 0-.24-3.559c-.042-.578-.072-1.157-.122-1.739a126.683 126.683 0 0 0-.585-5.029l-.025-.21c-.237-1.75-.519-3.484-.835-5.204-.099-.5-.21-.996-.309-1.49a103.337 103.337 0 0 0-.76-3.589c-.143-.64-.31-1.265-.465-1.89-.26-1.036-.52-2.072-.804-3.096-.195-.675-.402-1.346-.6-2.01-.294-.963-.59-1.913-.903-2.853-.223-.687-.47-1.37-.712-2.05-.192-.536-.362-1.087-.563-1.619h17.552a80.15 80.15 0 0 1 10.82 38.898zm-105.173 13.61c-.013-.26-.037-.51-.044-.75a265.235 265.235 0 0 1-.234-9.94h49.552c-.01.25-.01.5-.01.75-.03 3.07-.098 6.15-.228 9.19-.018.24-.031.49-.037.75-.155 3.18-.352 6.32-.606 9.42l-.006.02c-.257 3.11-.588 6.15-.963 9.14-.021.22-.046.44-.07.65-.366 2.86-.805 5.65-1.263 8.37-.037.2-.065.41-.111.61h-42.976c-.034-.2-.065-.41-.102-.61-.47-2.72-.891-5.51-1.26-8.37-.027-.21-.052-.43-.073-.65-.38-2.99-.7-6.03-.969-9.14v-.02c-.26-3.1-.458-6.24-.6-9.42zm-.09-51.74a199.164 199.164 0 0 0-1.19 8.08c-.05.342-.084.695-.125 1.04-.355 2.894-.665 5.83-.921 8.83-.013.121-.016.244-.025.365a265.18 265.18 0 0 0-.582 9.184c-.009.23-.025.452-.037.684a274.403 274.403 0 0 0-.223 9.177c-.004.26-.021.51-.021.77H93.684c.006-.75.025-1.5.05-2.26.024-.74.04-1.5.073-2.24.056-1.03.137-2.06.211-3.078.056-.718.105-1.44.173-2.156.096-1.076.232-2.14.366-3.208.074-.655.145-1.32.234-1.97.174-1.228.384-2.44.595-3.653.086-.48.142-.968.237-1.45.313-1.68.66-3.357 1.056-5.006.083-.365.185-.724.272-1.086.315-1.284.643-2.565.996-3.826.173-.588.365-1.167.544-1.75.306-1.019.612-2.033.953-3.035.21-.64.451-1.266.686-1.903.273-.758.552-1.525.848-2.277h24.682c-.046.247-.077.514-.118.767zm.69 18.021v-.015c.269-3.109.588-6.159.968-9.147.022-.214.047-.43.074-.64a195.04 195.04 0 0 1 1.26-8.374c.036-.208.067-.412.101-.613h42.976c.046.201.074.405.111.613.458 2.72.897 5.51 1.263 8.373.024.211.05.427.07.641.375 2.988.706 6.038.963 9.147l.006.015c.254 3.097.451 6.246.606 9.43.006.25.02.497.037.75.13 3.032.198 6.1.23 9.18 0 .25 0 .5.008.75h-49.552c0-.25.003-.5.006-.75.025-3.08.1-6.148.229-9.18.006-.253.03-.5.043-.75.142-3.184.34-6.333.6-9.43zm-10.672 23.03H122.418c0 .26.018.51.021.77.025 3.08.096 6.14.223 9.18.012.23.027.45.037.68.142 3.1.337 6.17.581 9.19.01.12.013.24.025.36.257 3 .566 5.94.922 8.84.04.34.074.69.118 1.04.355 2.76.754 5.45 1.197 8.07.04.26.07.53.117.77H100.977c-.29-.75-.569-1.51-.844-2.27-.226-.63-.47-1.26-.684-1.91-.34-1-.65-2.01-.956-3.03-.179-.59-.374-1.15-.535-1.75-.359-1.26-.68-2.54-.996-3.82-.093-.36-.2-.73-.284-1.09-.39-1.66-.743-3.33-1.055-5.01-.09-.47-.152-.96-.238-1.44-.21-1.22-.421-2.43-.594-3.66-.09-.65-.161-1.31-.235-1.96-.134-1.07-.27-2.14-.366-3.22-.067-.72-.117-1.43-.173-2.15-.074-1.03-.155-2.06-.21-3.09-.034-.74-.05-1.49-.074-2.24-.025-.75-.044-1.51-.05-2.26zm59.151 38.13c.44-2.62.838-5.31 1.194-8.07.043-.35.083-.7.123-1.04.36-2.9.665-5.84.916-8.84.012-.12.02-.24.031-.36.247-3.02.436-6.09.575-9.19.013-.23.031-.45.038-.68.135-3.04.2-6.1.228-9.18 0-.26.016-.51.016-.77h28.734c-.013.75-.03 1.5-.05 2.25-.024.75-.043 1.51-.08 2.26-.043 1.02-.127 2.04-.204 3.06-.062.72-.105 1.45-.174 2.18-.098 1.07-.235 2.13-.358 3.19-.087.66-.155 1.32-.24 1.98-.175 1.23-.385 2.44-.596 3.65-.08.49-.148.98-.24 1.45a102.66 102.66 0 0 1-1.053 5.02c-.077.34-.179.68-.266 1.03-.318 1.3-.64 2.59-.999 3.87-.176.6-.37 1.16-.547 1.75-.31 1.02-.613 2.03-.953 3.04-.219.64-.458 1.27-.69 1.9-.272.76-.55 1.52-.84 2.27h-24.68c.04-.24.071-.51.115-.77zm3.124-41.05h-.003c0-.26-.016-.51-.016-.77-.028-3.07-.093-6.14-.228-9.178-.007-.232-.025-.455-.038-.684a250.849 250.849 0 0 0-.575-9.187c-.012-.124-.019-.24-.03-.359a220.633 220.633 0 0 0-.917-8.838c-.04-.34-.08-.693-.123-1.036a218.027 218.027 0 0 0-1.194-8.08c-.044-.253-.075-.52-.115-.767h24.683c.296.767.577 1.537.852 2.314.23.618.46 1.231.675 1.85.35 1.045.671 2.103.99 3.161.17.544.346 1.077.501 1.621.387 1.361.74 2.732 1.07 4.117.068.266.143.53.204.79.39 1.666.743 3.343 1.06 5.041.08.418.141.857.21 1.287.222 1.262.438 2.53.618 3.808.086.637.151 1.281.235 1.921.13 1.083.266 2.166.364 3.254.07.712.112 1.43.174 2.147.068 1.027.161 2.047.204 3.087.037.74.056 1.5.08 2.24.02.76.037 1.51.05 2.26zm40.368-41.822h-16.927c-.16-.399-.349-.764-.525-1.157a103.327 103.327 0 0 0-1.807-4.003 83.923 83.923 0 0 0-.919-1.825 85.217 85.217 0 0 0-1.952-3.595c-.306-.525-.594-1.06-.903-1.574a80.25 80.25 0 0 0-3.025-4.699l-.087-.12a72.996 72.996 0 0 0-3.233-4.257c-.36-.439-.73-.856-1.098-1.284a66.658 66.658 0 0 0-2.474-2.753c-.415-.429-.832-.863-1.244-1.28a60.296 60.296 0 0 0-2.747-2.558c-.346-.307-.693-.638-1.039-.935a56.88 56.88 0 0 0-3.86-2.994c17.393 5.995 32.108 17.771 41.84 33.034zm-53.564-36.103.037.016c.213.081.414.182.624.27a50.04 50.04 0 0 1 2.63 1.165c.365.186.723.381 1.09.566a47.45 47.45 0 0 1 2.117 1.17c.388.226.765.457 1.145.696a46.88 46.88 0 0 1 2.04 1.348c.352.248.71.49 1.063.743a62.731 62.731 0 0 1 2.264 1.763c.238.195.477.374.71.566a60.284 60.284 0 0 1 2.897 2.608c.18.18.353.368.53.544a59.237 59.237 0 0 1 2.242 2.314c.296.325.582.665.872.996.612.69 1.212 1.404 1.797 2.125.313.381.616.761.913 1.151a61.654 61.654 0 0 1 1.695 2.29c.28.383.544.751.81 1.137a81.278 81.278 0 0 1 1.884 2.892c.15.245.316.48.467.731a81.079 81.079 0 0 1 2.206 3.873c.151.278.3.578.442.863a78.472 78.472 0 0 1 1.597 3.192c.216.464.426.937.636 1.41.245.548.483 1.114.724 1.674h-23.998c-.235-1.212-.47-2.4-.714-3.573-.046-.232-.103-.454-.152-.683-.253-1.2-.526-2.37-.798-3.517l-.278-1.148a140.2 140.2 0 0 0-.944-3.622l-.07-.276a132.736 132.736 0 0 0-1.099-3.665c-.099-.313-.2-.613-.3-.919a88.564 88.564 0 0 0-.972-2.849c-.077-.202-.148-.42-.228-.625a78.264 78.264 0 0 0-1.225-3.143c-.093-.226-.192-.445-.29-.668-.354-.813-.7-1.6-1.059-2.36-.115-.22-.217-.449-.315-.668a55.055 55.055 0 0 0-1.355-2.602c-.072-.124-.149-.245-.223-.37a42.636 42.636 0 0 0-1.219-2c-.124-.2-.247-.398-.377-.59a37.337 37.337 0 0 0-1.442-2.008l-.034-.034a22.363 22.363 0 0 0-1.308-1.53c1.673.2 3.334.451 4.968.747zm-22.873 2.39c.22-.274.44-.57.662-.828.282-.318.563-.59.848-.872.216-.222.433-.467.653-.665.294-.272.59-.485.888-.714.216-.164.426-.356.643-.505l.006-.003a89.676 89.676 0 0 1 3.972-.136h.693c1.571 0 3.13.06 4.677.15.21.138.421.33.621.491.301.232.601.445.89.717.221.198.437.44.661.662.278.285.562.557.847.875.22.257.44.548.656.827.278.337.55.661.816 1.03.22.306.434.646.66.971.256.39.516.767.776 1.191.216.35.423.74.646 1.11.251.44.507.87.752 1.34.216.402.421.835.631 1.253.241.485.486.968.724 1.485.204.445.402.924.612 1.382.23.541.461 1.064.7 1.624.191.492.386 1.015.581 1.525.223.575.44 1.145.662 1.745.186.535.374 1.095.563 1.65.204.611.421 1.236.615 1.876.183.575.363 1.17.545 1.763.192.663.393 1.321.572 2.002.18.616.34 1.25.514 1.881.18.7.365 1.401.538 2.122.161.652.316 1.311.467 1.976.17.74.343 1.488.504 2.243.15.69.288 1.39.427 2.091.105.48.198.968.291 1.454h-41.903a143.601 143.601 0 0 1 .712-3.53c.161-.77.337-1.522.507-2.267.15-.659.303-1.315.461-1.955.176-.733.368-1.44.554-2.147.16-.624.331-1.259.495-1.859.195-.69.396-1.355.591-2.017.173-.587.352-1.182.526-1.754.213-.643.423-1.268.634-1.887a95.56 95.56 0 0 1 .56-1.642c.22-.6.436-1.179.665-1.757.192-.508.38-1.02.578-1.51.226-.563.47-1.092.7-1.63.2-.467.401-.934.608-1.379.236-.517.477-1 .724-1.485.207-.418.415-.85.631-1.253.248-.47.502-.9.755-1.34.214-.37.421-.76.647-1.11.247-.424.51-.8.776-1.19.217-.326.433-.666.656-.973.266-.368.544-.692.81-1.029zm-15.847 2.844a63.639 63.639 0 0 1 2.058-1.358c.374-.232.748-.46 1.134-.69.71-.414 1.42-.797 2.144-1.178.347-.182.7-.37 1.058-.55a47.454 47.454 0 0 1 2.688-1.2c.19-.078.375-.165.566-.239l.081-.028c1.633-.3 3.282-.55 4.946-.75-.449.481-.894.994-1.33 1.545v.003a38.057 38.057 0 0 0-1.469 2.042c-.118.186-.25.38-.37.578a38.508 38.508 0 0 0-1.22 2.005c-.066.126-.149.247-.223.374a57.07 57.07 0 0 0-1.352 2.592c-.102.226-.213.458-.322.687a61.983 61.983 0 0 0-1.05 2.332c-.103.232-.202.458-.302.7a87.282 87.282 0 0 0-1.215 3.111c-.084.223-.164.455-.244.681a84.664 84.664 0 0 0-.953 2.787c-.105.32-.21.637-.31.962a105.061 105.061 0 0 0-1.085 3.626c-.038.123-.065.26-.105.39-.319 1.138-.622 2.32-.922 3.52-.093.383-.192.77-.282 1.163a141.015 141.015 0 0 0-.785 3.495c-.056.238-.112.464-.161.706a181.007 181.007 0 0 0-.712 3.563h-24.004c.23-.542.458-1.089.705-1.62.22-.496.44-1 .674-1.489a90.896 90.896 0 0 1 1.529-3.068c.173-.33.327-.662.5-.988a93.41 93.41 0 0 1 2.19-3.832c.174-.278.35-.54.52-.816.6-.957 1.201-1.9 1.832-2.806.275-.402.553-.789.838-1.179a68.396 68.396 0 0 1 1.664-2.249c.313-.395.616-.788.931-1.175a62.782 62.782 0 0 1 1.78-2.1c.296-.34.587-.687.887-1.015a67.259 67.259 0 0 1 2.218-2.295c.182-.18.368-.38.556-.56a56.745 56.745 0 0 1 2.887-2.605c.229-.195.47-.374.711-.569a52.35 52.35 0 0 1 2.271-1.766c.346-.25.699-.489 1.048-.737zm-2.013-2.177a61.023 61.023 0 0 0-3.876 3.006c-.344.297-.684.623-1.028.922-.94.826-1.858 1.68-2.768 2.577a99.07 99.07 0 0 0-1.225 1.265 61.66 61.66 0 0 0-2.496 2.778c-.362.418-.721.83-1.074 1.262a79.301 79.301 0 0 0-3.266 4.284l-.047.065a81.94 81.94 0 0 0-3.046 4.736c-.307.511-.597 1.043-.904 1.566a94.758 94.758 0 0 0-1.946 3.6c-.312.6-.618 1.206-.912 1.825a91.763 91.763 0 0 0-1.819 4.003c-.167.393-.365.758-.526 1.157H82.04c9.738-15.269 24.457-27.048 41.866-33.046zm-43.65 35.97H97.815c-.192.528-.368 1.073-.553 1.605-.25.69-.492 1.376-.727 2.075-.31.928-.6 1.862-.872 2.8-.208.69-.428 1.376-.625 2.07-.276.995-.536 2.006-.786 3.012-.167.66-.347 1.308-.495 1.971-.266 1.144-.495 2.307-.73 3.474-.106.534-.226 1.067-.328 1.608-.31 1.711-.594 3.44-.838 5.178-.019.117-.022.238-.037.356-.22 1.621-.412 3.254-.563 4.89-.053.582-.084 1.161-.134 1.736a106.108 106.108 0 0 0-.24 3.562c-.032.7-.044 1.39-.066 2.08-.03.83-.08 1.65-.09 2.48H69.438c.254-14.148 4.158-27.412 10.817-38.898zm-10.818 41.817h21.295c.01.83.058 1.66.09 2.48.021.69.033 1.39.064 2.08.056 1.2.149 2.39.248 3.59.043.56.074 1.14.127 1.71.16 1.7.352 3.4.581 5.09l.019.15c.244 1.75.529 3.48.844 5.2.093.51.21 1 .31 1.5.237 1.21.476 2.41.754 3.59.136.63.31 1.25.467 1.88.266 1.04.526 2.07.808 3.1.198.68.402 1.34.606 2.01.285.96.582 1.91.897 2.86.226.68.473 1.36.705 2.03.195.54.371 1.09.57 1.63H80.259c-6.663-11.49-10.567-24.74-10.821-38.9zm12.602 41.83H98.98c.167.4.353.76.53 1.15a78.537 78.537 0 0 0 1.815 4.01c.291.61.597 1.22.906 1.81.635 1.25 1.29 2.45 1.965 3.63.297.51.581 1.04.89 1.55a84.958 84.958 0 0 0 3.057 4.74l.019.03a74.427 74.427 0 0 0 3.291 4.32c.346.43.705.83 1.06 1.25a65.037 65.037 0 0 0 3.735 4.04 65.44 65.44 0 0 0 2.783 2.61c.341.29.662.6 1.01.89a57.425 57.425 0 0 0 3.89 3.02c-17.415-5.99-32.14-17.78-41.89-33.05zm53.633 36.11-.103-.03c-.194-.08-.395-.18-.609-.27-.882-.35-1.763-.74-2.636-1.17a27.01 27.01 0 0 1-1.089-.57c-.71-.36-1.41-.75-2.106-1.15-.393-.23-.78-.47-1.166-.71-.68-.42-1.348-.87-2.017-1.33-.365-.25-.72-.5-1.082-.77a45.344 45.344 0 0 1-2.209-1.71c-.26-.21-.52-.4-.777-.62a58.67 58.67 0 0 1-2.858-2.58c-.22-.21-.423-.43-.634-.64a72.874 72.874 0 0 1-2.134-2.21c-.316-.35-.629-.71-.95-1.07a72.26 72.26 0 0 1-1.717-2.04c-.321-.4-.643-.81-.965-1.22a53.63 53.63 0 0 1-1.62-2.19c-.3-.41-.598-.81-.88-1.24a60.144 60.144 0 0 1-1.769-2.71c-.191-.31-.383-.6-.575-.9a85.582 85.582 0 0 1-2.178-3.81c-.176-.34-.346-.69-.526-1.02-.513-1.01-1.027-2.01-1.512-3.04-.229-.49-.452-.99-.672-1.49-.24-.53-.47-1.08-.705-1.62h23.998c.23 1.22.467 2.41.718 3.58.043.21.093.42.143.63.26 1.22.528 2.41.807 3.57.09.38.18.75.272 1.13.31 1.24.618 2.45.943 3.63.031.09.05.19.081.28.352 1.26.72 2.47 1.094 3.66.093.31.2.61.297.92.316.97.644 1.92.972 2.84.074.21.148.43.226.64.402 1.08.813 2.12 1.228 3.13.1.23.192.45.294.68.343.81.696 1.59 1.055 2.35.111.22.22.45.327.67.44.91.891 1.78 1.343 2.6.08.13.157.24.222.37.403.7.805 1.37 1.22 2.01.123.19.253.39.383.58.474.71.962 1.39 1.457 2.02l.012.02c.434.55.87 1.06 1.318 1.54a72.536 72.536 0 0 1-4.92-.74zm22.81-2.39c-.217.26-.439.56-.665.82-.276.31-.56.58-.838.87-.226.22-.443.47-.662.66-.288.27-.588.48-.873.71-.216.17-.439.36-.662.51l-.006.01c-1.42.08-2.852.13-4.293.14h-.366c-1.559 0-3.118-.06-4.658-.15-.22-.15-.43-.34-.656-.51-.29-.23-.58-.44-.869-.71-.217-.19-.443-.44-.659-.66-.282-.29-.566-.56-.848-.87-.216-.26-.439-.56-.649-.82-.279-.35-.557-.67-.823-1.04-.223-.31-.433-.64-.656-.97a25.07 25.07 0 0 1-.776-1.19c-.226-.35-.433-.74-.647-1.12-.253-.44-.507-.86-.755-1.33-.216-.41-.42-.83-.624-1.25-.248-.49-.492-.98-.73-1.49-.2-.44-.409-.91-.61-1.37-.229-.54-.467-1.08-.693-1.64-.2-.49-.392-1-.584-1.51a59.12 59.12 0 0 1-.665-1.76c-.189-.53-.372-1.08-.56-1.63-.21-.63-.42-1.25-.634-1.9-.174-.57-.344-1.15-.517-1.74-.204-.66-.405-1.34-.6-2.03-.164-.6-.328-1.22-.489-1.84-.192-.72-.377-1.43-.56-2.16-.15-.64-.306-1.29-.454-1.94-.177-.76-.35-1.52-.514-2.29-.143-.67-.285-1.35-.427-2.03-.093-.49-.192-.99-.285-1.49h41.903c-.099.5-.192 1-.29 1.49-.143.68-.279 1.36-.422 2.03-.167.77-.34 1.53-.519 2.29-.142.65-.297 1.3-.458 1.94-.176.73-.362 1.44-.55 2.16-.162.62-.329 1.24-.49 1.84-.197.69-.408 1.37-.599 2.03-.174.59-.347 1.17-.53 1.74-.197.65-.414 1.27-.625 1.9-.185.55-.367 1.1-.553 1.63-.223.6-.446 1.19-.668 1.76-.189.51-.39 1.02-.582 1.51-.232.56-.467 1.1-.705 1.64-.198.46-.399.93-.6 1.37-.24.51-.483 1-.73 1.49-.21.42-.415.84-.625 1.25-.253.47-.504.89-.752 1.33-.223.38-.43.77-.646 1.12-.26.41-.523.8-.786 1.19-.219.33-.433.66-.655.97-.26.37-.542.69-.81 1.04zm15.82-2.84c-.669.46-1.337.91-2.018 1.33-.386.24-.767.48-1.163.71-.693.4-1.395.79-2.103 1.15-.366.2-.724.39-1.092.57-.87.43-1.754.81-2.632 1.17-.217.09-.409.19-.619.27l-.1.03c-1.62.3-3.263.55-4.918.75.446-.49.885-1 1.321-1.55l.016-.02c.494-.63.974-1.31 1.453-2.02l.375-.58c.424-.64.826-1.31 1.225-2.01.071-.13.145-.24.213-.37.464-.82.916-1.69 1.35-2.6.116-.22.218-.45.333-.67.36-.76.705-1.54 1.058-2.35.093-.23.192-.45.284-.68.421-1.01.833-2.05 1.232-3.13.074-.21.151-.43.228-.64.328-.92.657-1.87.972-2.84.1-.31.198-.61.3-.92.368-1.19.733-2.4 1.092-3.66.027-.09.05-.19.074-.28.325-1.18.643-2.39.947-3.63.086-.38.185-.75.278-1.13.272-1.16.545-2.35.807-3.57.047-.21.097-.42.14-.63.241-1.17.482-2.36.717-3.58h23.998c-.235.54-.46 1.09-.705 1.62-.219.5-.445 1-.67 1.49-.493 1.03-1.006 2.03-1.514 3.04-.179.33-.346.68-.526 1.02a89.109 89.109 0 0 1-2.18 3.81c-.183.3-.387.59-.57.89-.578.93-1.169 1.85-1.772 2.73-.288.42-.587.82-.878 1.23-.529.75-1.074 1.47-1.622 2.19-.32.41-.646.82-.97 1.22-.567.7-1.139 1.38-1.718 2.04-.312.36-.63.72-.949 1.07-.693.76-1.41 1.49-2.122 2.21-.217.21-.427.43-.643.64-.929.9-1.888 1.76-2.865 2.58-.25.22-.514.41-.774.62-.727.6-1.462 1.17-2.205 1.71-.356.27-.72.52-1.086.77zm2.022 2.17a56.957 56.957 0 0 0 3.882-3.01c.356-.3.7-.63 1.055-.94.922-.82 1.838-1.66 2.728-2.55.418-.42.842-.85 1.256-1.3.842-.87 1.661-1.79 2.472-2.74.368-.42.74-.84 1.098-1.28a74.959 74.959 0 0 0 3.23-4.25l.074-.1c1.058-1.51 2.06-3.1 3.044-4.73.31-.51.597-1.04.897-1.57.68-1.17 1.33-2.36 1.961-3.6.31-.6.618-1.21.91-1.82a95.834 95.834 0 0 0 1.812-4c.173-.4.371-.76.532-1.16h16.933c-9.744 15.27-24.47 27.06-41.884 33.05zm43.666-35.98h-17.567c.198-.54.38-1.09.572-1.62.241-.68.49-1.36.712-2.05.31-.93.606-1.88.887-2.82.204-.69.418-1.36.616-2.05.272-1 .53-2 .782-3.01.164-.66.344-1.32.492-1.98.26-1.13.496-2.28.724-3.43.115-.55.235-1.1.34-1.65.316-1.72.598-3.44.835-5.18.013-.12.025-.24.044-.36.223-1.62.408-3.25.557-4.88.06-.59.09-1.19.14-1.77.09-1.17.178-2.35.231-3.54.037-.69.056-1.4.074-2.09.031-.82.075-1.65.084-2.47h21.291a80.063 80.063 0 0 1-10.814 38.9z" style="fill:#eeedec;stroke:none;stroke-width:.801738" transform="matrix(1.24729 0 0 1.24729 -79.271 -783.38)"/><path d="m141.822 693.982-.489-.458-.155.653c.248 3.356 2.785 6.171 5.324 5.961-2.119.17-4.476-3.36-4.68-6.156" style="fill:#afb0b0;stroke:none;stroke-width:.801738" transform="matrix(1.24729 0 0 1.24729 -79.271 -783.38)"/><path d="m138.734 696.852-.315-4.373-4.182-1.052 3.991-1.655-.313-4.374 2.781 3.353 3.99-1.658-2.273 3.728 2.781 3.356-4.186-1.049-2.274 3.724m-1.793-13.892.448 6.28-5.732 2.372 6.007 1.516.455 6.28 3.075-5.046-.016-.185.155-.653.49.458c.004.061.01.123.016.186l5.551 1.395-3.99-4.814 3.26-5.35-5.726 2.378-3.993-4.817" style="fill:#c7c6c6;stroke:none;stroke-width:.801738" transform="matrix(1.24729 0 0 1.24729 -79.271 -783.38)"/><path d="m141.333 693.524-.155.653.016.185.19-.309.455.115c-.007-.063-.012-.125-.017-.186l-.489-.458" style="fill:#afb0b0;stroke:none;stroke-width:.801738" transform="matrix(1.24729 0 0 1.24729 -79.271 -783.38)"/><path d="M152.247 640.013c6.255 7.021 3 7.148 12.781 21.492 12.461 18.272 36.49 25.58 42.02 28.131 5.21 2.406 14.227 6.23 14.227 6.23-1.79-1.188-21.13-14.094-27.002-27.447-7.344-16.692-25.155-21.929-25.155-21.929 4.928-.52 8.21-.046 15.417 2.174 13.051 4.025 21.072 11.291 33.696 26.235 3.53 4.17 5.723 7 10.304 13.323 4.417 6.088 6.502 12.154 6.657 12.6-6.973-42.909-44.124-74.696-87.347-72.663a82.568 82.568 0 0 0-13.96 1.855c6.112 1.507 12.865 3.833 18.362 10z" style="fill:#53a23d;stroke:none;stroke-width:.801738" transform="matrix(1.24729 0 0 1.24729 -79.271 -783.38)"/><path d="M118.628 639.97c1.745 2.672-.266 7.157-4.485 10.01-4.226 2.854-9.063 2.996-10.808.321-1.745-2.67.26-7.155 4.485-10.007 4.223-2.859 9.06-3.004 10.808-.325z" style="fill:#c52d38;stroke:none;stroke-width:.801738" transform="matrix(1.24729 0 0 1.24729 -79.271 -783.38)"/><path d="M122.644 657.406a4.293 4.293 0 0 0-.27-.498c-.532-.813-1.296-1.41-2.224-1.822-1.293-.572-2.91-.727-4.658-.492l.003-.009c-5.042.786-9.116 3.171-10.564 3.792-3.266 1.424-12.348 6.512-12.584 1.031-.203-5.083 2.871-8.928 3.112-12.058a83.798 83.798 0 0 0-9.165 8.73c-30.491 33.705-29.21 85.81 2.07 118.74-.589-.71-4.957-6.01-8.483-14.82-3.786-9.46-5.958-22.28-4.76-33.82 1.203-11.54 2.604-18.6 13.527-33.383 0 0 6.496-8.324 11.436-10.644 0 0 .436-.173.232.421 0 0-1.943 4.742-3.152 11.062-1.203 6.322-2.41 13.333-2.59 16.573-.173 3.25-.93 10.97-.225 12 0 0 1.584-17.62 10.607-33.548 8.513-15.015 18.25-25.427 18.22-28.712a7.084 7.084 0 0 0-.532-2.543z" style="fill:#c52d38;stroke:none;stroke-width:.801738" transform="matrix(1.24729 0 0 1.24729 -79.271 -783.38)"/><path d="M233.261 732.38c-.547.31-7.216 10.6-8.395 10.92-1.522.42-2.27.24-5.518-4.15-2.48-3.31-1.829 1.46-1.154 4.8.625 3.11 1.643 7.17 1.605 10.68-.019 2.27-.749 4.38-1.775 6.28-1.739 2.61-4.009 5.48-7.298 8.71-6.879 6.78-13.81 8.99-22.15 10.45-4.746.83-11.66 1.77-18.623-2.67-3.737-2.66.424-11.6.424-11.6-7.29 3.86-15.09 4.85-18.718 5.31-6.453.07-10.747-1.84-17.409-3.68-4.875-1.35-10.122-1.97-16.222-.01l-.049.01c-.906.25-1.708.55-2.48.91-10.543 4.24-11.483 10.96-10.611 15.53.043 1 1.392 4.33 1.62 4.8l.18.1v.01h.009c12.07 7.45 25.795 11.62 39.796 12.32h.192c1.438.07 2.877.12 4.324.1a84.31 84.31 0 0 0 27.98-4.85c-2.058-.07-4.671-.19-8.349-.29-7.192-.19-16.451-2.45-16.451-2.45-6.694-1.82-10.406-3.18-12.423-4.05 14.515 3.98 29.131 4.75 29.805 4.77 6.332.14 11.807.08 20.029-3.65a87.314 87.314 0 0 0 7.817-4.88c.387-.26.783-.52 1.16-.81 10.706-7.73 17.638-15.13 23.373-25.6a86.993 86.993 0 0 0 8.736-19.91c1.231-3.64 1.794-7.77.575-7.1z" style="fill:#006cac;stroke:none;stroke-width:.801738" transform="matrix(1.24729 0 0 1.24729 -79.271 -783.38)"/><path d="M168.54 701.567h8.206v21.202h-5.413V705.78h-.062l-6.509 16.99h-4.664l-6.518-16.99h-.049v16.99h-5.417v-21.203h8.213l6.097 15.272zM194.582 707.71c-.08-.65-.284-1.18-.606-1.599a3.075 3.075 0 0 0-1.219-.937 5.358 5.358 0 0 0-1.528-.412 15.045 15.045 0 0 0-1.806-.105c-1.139 0-2.048.235-2.748.696-.705.464-1.063 1.064-1.063 1.796 0 .55.213.99.63 1.32.406.33.993.55 1.74.67l7.002 1.15c1.015.18 1.912.41 2.691.69.78.28 1.46.65 2.042 1.09a4.925 4.925 0 0 1 1.38 1.73c.315.7.482 1.51.482 2.43 0 1.04-.188 1.97-.544 2.82-.365.86-.968 1.61-1.807 2.26-.835.66-1.936 1.17-3.328 1.51-1.373.35-3.05.54-5.005.54-1.522 0-2.914-.08-4.188-.24-1.29-.16-2.488-.48-3.61-.98-1.123-.5-2.029-1.23-2.719-2.22-.69-1-1.046-2.26-1.064-3.83h6.282c.016.69.17 1.27.49 1.71.302.46.713.82 1.224 1.07.504.24 1.061.41 1.661.5.613.09 1.244.13 1.924.13 1.361 0 2.431-.22 3.226-.66.783-.43 1.18-.85 1.18-1.74 0-.77-.276-1.57-.818-1.89-.556-.33-1.438-.59-2.666-.79l-5.1-.79c-1.043-.17-1.959-.37-2.757-.62a8 8 0 0 1-2.166-1.02 4.48 4.48 0 0 1-1.546-1.74c-.378-.72-.56-1.59-.56-2.62 0-2.304.875-3.977 2.608-5.05 1.734-1.068 4.262-1.606 7.59-1.606 1.266 0 2.481.077 3.66.238 1.166.161 2.29.47 3.365.934a6.703 6.703 0 0 1 2.682 2.067c.712.906 1.095 2.081 1.188 3.497zM203.912 701.567h5.58v12.182c0 .72.047 1.38.136 1.95.087.57.297 1.14.616 1.71.325.56.85 1.03 1.575 1.38.717.35 1.682.54 2.892.54 1.212 0 2.183-.19 2.895-.54.721-.35 1.24-.82 1.568-1.38.328-.57.532-1.14.625-1.71.087-.57.127-1.23.127-1.95v-12.182h5.59v13.592c0 .87-.093 1.73-.279 2.57-.182.85-.612 1.7-1.305 2.58-.699.86-1.788 1.59-3.288 2.17-1.494.59-3.47.88-5.933.88-2.435 0-4.415-.29-5.918-.88-1.507-.58-2.608-1.31-3.298-2.17-.696-.88-1.13-1.73-1.308-2.58-.188-.84-.275-1.7-.275-2.57zM148.553 727.71c.112-.21.272-.37.471-.5.197-.13.451-.22.714-.29.27-.06.57-.09.891-.09.244 0 .501.02.764.06.257.03.516.11.767.22.254.11.473.28.643.5.18.23.291.52.322.87h-1.16c-.016-.22-.133-.42-.346-.58-.214-.16-.535-.25-.944-.25-.368 0-.649.06-.866.17-.21.12-.319.3-.319.54 0 .13.037.23.115.31.077.08.182.14.312.19.133.06.27.08.43.11a5 5 0 0 0 .625.09c.366.04.671.09.904.14.234.05.473.13.69.24.22.1.392.25.528.44.136.21.201.45.201.75 0 .32-.07.59-.222.81-.143.22-.334.4-.573.53-.238.12-.498.21-.785.27-.279.05-.576.08-.876.08-.449 0-.835-.04-1.166-.13-.325-.09-.59-.21-.798-.37-.21-.16-.365-.35-.464-.57a1.95 1.95 0 0 1-.155-.75h1.157c.012.33.15.58.406.75.26.17.615.25 1.054.25.177 0 .334-.01.486-.04.151-.02.275-.07.4-.12.117-.07.21-.15.277-.25.062-.1.102-.22.102-.35 0-.14-.04-.25-.114-.34a.851.851 0 0 0-.328-.21c-.133-.06-.285-.1-.45-.13-.174-.03-.385-.06-.636-.1-.355-.05-.646-.11-.875-.15a2.616 2.616 0 0 1-.668-.23c-.21-.1-.372-.24-.5-.43-.13-.19-.193-.42-.193-.71 0-.28.055-.53.18-.73zM153.948 726.98h1.07v5.19h-1.07zM156.064 726.98h1.225l3.04 3.9h.013v-3.9h1.036v5.19h-1.209l-3.069-3.9h-.009v3.9h-1.027zM166.612 728.9c-.049-.4-.226-.71-.519-.92-.3-.22-.669-.33-1.127-.33-.507 0-.924.16-1.243.52-.316.35-.473.85-.473 1.5 0 .27.04.51.127.74.086.22.204.42.371.58.16.17.346.3.57.39.218.08.463.12.73.12.255 0 .488-.04.68-.12.191-.07.346-.18.47-.31.13-.14.22-.28.284-.43.065-.14.106-.3.13-.45h1.166c-.046.28-.129.54-.247.8-.118.24-.275.47-.504.67-.229.2-.514.36-.879.48-.356.11-.786.18-1.293.18-.445 0-.838-.07-1.188-.22a2.17 2.17 0 0 1-.853-.6 2.377 2.377 0 0 1-.514-.87 3.272 3.272 0 0 1-.167-1.05c0-.38.056-.73.167-1.06.108-.33.285-.62.52-.88.235-.25.528-.45.891-.6.364-.13.785-.21 1.274-.21.427 0 .807.06 1.142.16.34.11.627.26.862.45.224.18.41.4.542.65.136.25.216.52.247.81zM168.641 726.98h4.427v.81h-3.356v1.31h3.223v.82h-3.223v1.44h3.415v.81h-4.486zM177.6 728.69h-1.497v-.74h.302c.137 0 .282-.01.431-.03.145-.02.287-.07.426-.14.14-.06.264-.16.366-.28a.944.944 0 0 0 .213-.45h.786v5.12H177.6zM181.036 730.91c.056.19.158.34.313.44.157.11.386.16.681.16.433 0 .776-.13 1.02-.43.238-.29.372-.68.402-1.17-.21.22-.433.36-.668.45-.229.07-.525.12-.872.12-.365 0-.68-.05-.934-.14-.269-.09-.48-.21-.644-.37a1.43 1.43 0 0 1-.356-.53c-.077-.2-.117-.41-.117-.64a1.612 1.612 0 0 1 .554-1.22c.185-.18.424-.31.718-.41.294-.1.63-.15 1.023-.15.43 0 .795.07 1.104.2.304.13.54.31.718.55.174.23.31.51.384.82.084.33.114.68.114 1.07 0 .28-.028.56-.095.86-.069.3-.187.58-.353.85-.168.26-.409.48-.72.66-.307.17-.697.26-1.152.26-.67 0-1.178-.12-1.544-.36a1.369 1.369 0 0 1-.618-1.02zm2.008-2.85c-.198-.18-.5-.27-.915-.27-.412 0-.718.09-.9.27a.879.879 0 0 0-.295.69c0 .27.093.5.294.69.183.18.49.27.901.27.414 0 .717-.09.915-.27a.938.938 0 0 0 .291-.69c0-.28-.099-.51-.29-.69zM184.906 727.14h4.452v.88c-.26.29-.517.61-.765.93-.247.32-.476.67-.692 1.03-.214.36-.4.73-.558 1.11-.154.37-.253.74-.309 1.08h-1.249c.04-.32.142-.69.306-1.08.17-.38.374-.78.628-1.15.247-.39.507-.75.782-1.08.276-.33.536-.62.777-.87h-3.372zM193.317 728.4a.703.703 0 0 0-.309-.44c-.152-.11-.387-.17-.678-.17-.427 0-.773.15-1.02.45-.242.28-.378.68-.403 1.16.21-.21.433-.36.675-.44.23-.09.526-.12.872-.12.362 0 .671.03.934.12.26.1.476.22.644.38.16.15.284.34.352.53.074.2.118.41.118.63 0 .23-.046.45-.142.67-.087.21-.229.4-.415.57-.186.17-.42.3-.71.4-.298.1-.629.15-1.022.15-.439 0-.805-.06-1.108-.2a1.807 1.807 0 0 1-.72-.54 2.306 2.306 0 0 1-.384-.83c-.09-.33-.12-.68-.12-1.07 0-.28.03-.57.098-.86.07-.3.186-.58.36-.85.16-.26.401-.49.71-.66.31-.17.697-.26 1.164-.26.662 0 1.17.13 1.528.37.362.23.575.58.624 1.01zm-1.995 2.85c.188.18.501.26.91.26.407 0 .711-.08.902-.26.192-.18.285-.4.285-.69 0-.27-.093-.5-.285-.69-.19-.17-.495-.27-.903-.27-.408 0-.72.1-.909.27a.94.94 0 0 0-.294.69c0 .29.102.51.294.69z" style="fill:#373531;stroke:none;stroke-width:.801738" transform="matrix(1.24729 0 0 1.24729 -79.271 -783.38)"/></g></svg>