<svg xmlns="http://www.w3.org/2000/svg" xml:space="preserve" width="1332.6484" height="334.69098" viewBox="0 0 1332.6484 334.69096"><defs><clipPath id="a" clipPathUnits="userSpaceOnUse"><path d="M0 842h595V0H0Z"/></clipPath></defs><g clip-path="url(#a)" transform="matrix(4.7613 0 0 -4.7613 -1032.784 1598.409)"><path d="M0 0c.023-.67.186-1.173.486-1.509.29-.324.694-.486 1.215-.486.555 0 .988.151 1.302.454.311.302.468.725.468 1.265 0 .541-.156.936-.468 1.185-.231.195-.722.4-1.473.616a7.36 7.36 0 0 0-1.42.537c-.521.268-.937.578-1.249.922-.242.26-.426.57-.555.925a3.476 3.476 0 0 0-.155 1.055c0 1.081.353 1.964 1.057 2.644C-.087 8.29.819 8.63 1.929 8.63c1.028 0 1.866-.315 2.513-.942.672-.663 1.043-1.584 1.112-2.761H3.246c-.035.54-.174.94-.417 1.199-.23.249-.548.373-.951.373-.452 0-.799-.124-1.04-.373-.243-.248-.365-.605-.365-1.07a2 2 0 0 1 .035-.42.807.807 0 0 1 .209-.309c.15-.14.364-.264.642-.374.173-.062.462-.15.868-.258l.867-.259c.868-.303 1.539-.763 2.014-1.379.487-.606.729-1.328.729-2.173 0-1.178-.383-2.146-1.148-2.902-.765-.778-1.751-1.167-2.954-1.167-1.156 0-2.098.378-2.827 1.135C-1.845-2.281-2.22-1.266-2.22 0Z" style="fill:#176fc1;fill-opacity:1;fill-rule:nonzero;stroke:none" transform="translate(297.634 281.908)"/><path d="M0 0v12.359h7.196v-2.13H2.425v-2.97h4.771V5.158H2.425v-2.97h4.771V0Z" style="fill:#176fc1;fill-opacity:1;fill-rule:nonzero;stroke:none" transform="translate(305.866 277.959)"/><path d="M0 0a3.85 3.85 0 0 1 .901-1.327c.406-.4.873-.707 1.408-.923a4.078 4.078 0 0 1 1.612-.323c1.238 0 2.268.403 3.089 1.214.822.797 1.233 1.806 1.233 3.026 0 .518-.105 1.004-.313 1.457a3.962 3.962 0 0 1-.884 1.279c-.451.464-.92.799-1.407 1.004-.497.205-1.071.308-1.718.308-.578 0-1.11-.092-1.596-.276a3.82 3.82 0 0 1-1.318-.857 4.04 4.04 0 0 1-.973-1.361 3.94 3.94 0 0 1-.329-1.586C-.295 1.052-.197.507 0 0m-2.259 4.121A6.1 6.1 0 0 0-.748 6.21a6.93 6.93 0 0 0 2.135 1.329c.809.303 1.66.454 2.552.454.902 0 1.759-.151 2.57-.454a6.728 6.728 0 0 0 2.169-1.344 6.504 6.504 0 0 0 1.51-2.074c.359-.778.539-1.6.539-2.462a6.26 6.26 0 0 0-.469-2.414 6.137 6.137 0 0 0-1.302-1.994 7.34 7.34 0 0 0-2.292-1.54 7.084 7.084 0 0 0-2.743-.533c-.972 0-1.886.183-2.742.551A6.914 6.914 0 0 0-1.096-2.7 6.367 6.367 0 0 0-2.345-.706a6.56 6.56 0 0 0-.435 2.365c0 .862.175 1.684.521 2.462" style="fill:#176fc1;fill-opacity:1;fill-rule:nonzero;stroke:none" transform="translate(317.63 282.56)"/><path d="M0 0h-2.425v4.557l-4.06 7.799h2.723l2.583-5.286 2.549 5.286h2.706L0 4.459Z" style="fill:#176fc1;fill-opacity:1;fill-rule:nonzero;stroke:none" transform="translate(336.12 277.958)"/><path d="M0 0v12.359h7.196v-2.13H2.425v-2.97h4.771V5.158H2.425v-2.97h4.771V0Z" style="fill:#176fc1;fill-opacity:1;fill-rule:nonzero;stroke:none" transform="translate(341.89 277.959)"/><path d="M0 0c.209-.507.509-.95.901-1.327.407-.4.875-.707 1.407-.923a4.085 4.085 0 0 1 1.614-.323c1.237 0 2.266.403 3.09 1.214.82.797 1.231 1.806 1.231 3.026 0 .518-.103 1.004-.313 1.457-.196.464-.49.891-.885 1.279-.45.464-.918.799-1.406 1.004-.496.205-1.069.308-1.717.308a4.478 4.478 0 0 1-1.597-.276 3.82 3.82 0 0 1-1.318-.857 4.04 4.04 0 0 1-.973-1.361 3.94 3.94 0 0 1-.329-1.586C-.295 1.052-.197.507 0 0m-2.259 4.121A6.1 6.1 0 0 0-.748 6.21a6.953 6.953 0 0 0 2.135 1.329c.81.303 1.661.454 2.552.454a7.28 7.28 0 0 0 2.57-.454 6.743 6.743 0 0 0 2.17-1.344 6.47 6.47 0 0 0 1.509-2.074c.359-.778.539-1.6.539-2.462a6.26 6.26 0 0 0-.469-2.414 6.12 6.12 0 0 0-1.302-1.994 7.325 7.325 0 0 0-2.291-1.54 7.091 7.091 0 0 0-2.743-.533c-.972 0-1.887.183-2.743.551A6.934 6.934 0 0 0-1.096-2.7 6.367 6.367 0 0 0-2.345-.706a6.559 6.559 0 0 0-.434 2.365c0 .862.174 1.684.52 2.462" style="fill:#176fc1;fill-opacity:1;fill-rule:nonzero;stroke:none" transform="translate(353.654 282.56)"/><path d="M0 0v12.356h2.324l5.672-8.139v8.139h2.395V0h-2.22L2.426 8.367V0Z" style="fill:#176fc1;fill-opacity:1;fill-rule:nonzero;stroke:none" transform="translate(366.807 277.958)"/><path d="M0 0c-.104-2.044-.792-3.688-2.065-4.93-1.249-1.211-2.817-1.816-4.703-1.816a6.86 6.86 0 0 0-2.741.551 6.94 6.94 0 0 0-2.274 1.571 6.391 6.391 0 0 0-1.251 1.994 6.558 6.558 0 0 0-.433 2.365c0 .863.174 1.684.522 2.462a6.276 6.276 0 0 0 1.527 2.089 6.503 6.503 0 0 0 2.152 1.346c.798.292 1.684.437 2.655.437 1.341 0 2.521-.315 3.539-.944 1.03-.641 1.845-1.587 2.447-2.842h-2.861c-.442.529-.927.913-1.459 1.152-.533.237-1.14.356-1.823.356a4.452 4.452 0 0 1-1.579-.275 4.062 4.062 0 0 1-1.337-.858 4.045 4.045 0 0 1-.97-1.361 3.94 3.94 0 0 1-.329-1.586c0-.583.097-1.128.294-1.635.208-.507.508-.95.903-1.327a4.257 4.257 0 0 1 1.404-.923 4.092 4.092 0 0 1 1.614-.323c.846 0 1.58.184 2.205.553.648.39 1.157.965 1.527 1.725h-4.131V0Z" style="fill:#176fc1;fill-opacity:1;fill-rule:nonzero;stroke:none" transform="translate(393.099 284.484)"/><path d="M0 0v-7.768c0-.972.122-1.637.364-1.995.279-.399.812-.599 1.601-.599.719 0 1.21.2 1.476.599.245.368.366 1.034.366 1.995V0h2.425v-7.751c0-.725-.042-1.292-.123-1.703-.092-.551-.277-1.022-.553-1.409a4.016 4.016 0 0 0-1.51-1.282c-.602-.291-1.284-.436-2.047-.436-.833 0-1.556.141-2.168.42a3.95 3.95 0 0 0-1.579 1.298c-.313.42-.516.917-.608 1.49-.046.336-.069.876-.069 1.622V0Z" style="fill:#176fc1;fill-opacity:1;fill-rule:nonzero;stroke:none" transform="translate(403.799 290.32)"/><path d="M0 0v12.356h2.323l5.672-8.139v8.139h2.395V0H8.17L2.425 8.367V0Z" style="fill:#176fc1;fill-opacity:1;fill-rule:nonzero;stroke:none" transform="translate(412.845 277.958)"/><path d="M426.049 290.314h2.426v-12.356h-2.426z" style="fill:#176fc1;fill-opacity:1;fill-rule:nonzero;stroke:none"/><path d="m0 0-4.962 12.356h2.585l3.14-8.253 3.124 8.253h2.55L1.51 0Z" style="fill:#176fc1;fill-opacity:1;fill-rule:nonzero;stroke:none" transform="translate(435.12 277.958)"/><path d="M0 0v12.359h7.197v-2.13H2.425v-2.97h4.772V5.158H2.425v-2.97h4.772V0Z" style="fill:#176fc1;fill-opacity:1;fill-rule:nonzero;stroke:none" transform="translate(443.264 277.959)"/><path d="M0 0c-.356.248-.951.373-1.779.373H-2.87v-3.352h1.037c.854 0 1.46.125 1.816.375.38.247.572.672.572 1.277C.555-.701.371-.259 0 0m2.201-3.47C1.67-4.119.937-4.589.003-4.882l3.931-4.979H.902l-3.633 4.752h-.139v-4.752h-2.395V2.504h3.222c.772 0 1.344-.022 1.714-.065.566-.077 1.045-.228 1.438-.455.565-.293 1.015-.735 1.351-1.331a3.556 3.556 0 0 0 .519-1.866c0-.866-.26-1.619-.778-2.257" style="fill:#176fc1;fill-opacity:1;fill-rule:nonzero;stroke:none" transform="translate(457.882 287.815)"/><path d="M0 0c.022-.67.185-1.173.485-1.509.288-.324.694-.486 1.214-.486.556 0 .989.151 1.302.454.312.302.469.725.469 1.265 0 .541-.157.936-.467 1.185-.232.195-.723.4-1.475.616a7.396 7.396 0 0 0-1.421.537c-.519.268-.935.578-1.247.922a2.61 2.61 0 0 0-.554.925 3.445 3.445 0 0 0-.157 1.055c0 1.081.353 1.964 1.057 2.644C-.089 8.29.819 8.63 1.928 8.63c1.027 0 1.865-.315 2.512-.942.671-.663 1.042-1.584 1.112-2.761H3.244c-.035.54-.174.94-.416 1.199-.231.249-.55.373-.953.373-.45 0-.798-.124-1.04-.373-.243-.248-.363-.605-.363-1.07 0-.172.011-.313.034-.42a.84.84 0 0 1 .208-.309c.15-.14.365-.264.642-.374.175-.062.464-.15.869-.258l.867-.259c.869-.303 1.54-.763 2.014-1.379.486-.606.73-1.328.73-2.173 0-1.178-.384-2.146-1.149-2.902-.764-.778-1.75-1.167-2.953-1.167-1.158 0-2.098.378-2.829 1.135-.751.769-1.127 1.784-1.127 3.05z" style="fill:#176fc1;fill-opacity:1;fill-rule:nonzero;stroke:none" transform="translate(465.019 281.908)"/><path d="M473.248 290.314h2.425v-12.356h-2.425z" style="fill:#176fc1;fill-opacity:1;fill-rule:nonzero;stroke:none"/><path d="M0 0v10.219h-2.567v2.145h7.563v-2.145H2.411V0Z" style="fill:#176fc1;fill-opacity:1;fill-rule:nonzero;stroke:none" transform="translate(480.282 277.954)"/><path d="M0 0h-2.425v4.557l-4.059 7.799h2.724l2.583-5.286 2.548 5.286h2.707L0 4.459Z" style="fill:#176fc1;fill-opacity:1;fill-rule:nonzero;stroke:none" transform="translate(492.726 277.958)"/><path d="M0 0v8.496h5.203v-32.248H0v19.813h-8.347V0Zm-15.519 8.507c0-7.163.83-12.408 2.487-15.736 1.479-2.972 3.803-4.686 6.969-5.143v-4.572c-2.693.278-5.031 1.117-7.014 2.514-2.103 1.499-3.835 3.684-5.197 6.553-1.365-2.794-3.215-4.978-5.554-6.553a15.291 15.291 0 0 0-6.703-2.514v4.534c3.165.508 5.518 2.235 7.059 5.181 1.715 3.328 2.575 8.573 2.575 15.736z" style="fill:#176fc1;fill-opacity:1;fill-rule:nonzero;stroke:none" transform="translate(325.575 319.884)"/><path d="M0 0v2.362h5.202v-14.647H0v2.438h-7.727v3.879H0v2.087h-7.727V0Zm-12.021-18.645c-1.452-1.117-2.175-2.46-2.175-4.032 0-1.546.723-2.878 2.175-3.993 1.419-1.09 3.049-1.635 4.885-1.635 1.865 0 3.493.545 4.885 1.635 1.48 1.09 2.221 2.421 2.221 3.993 0 1.598-.741 2.941-2.221 4.032-1.392 1.064-3.02 1.597-4.885 1.597-1.836 0-3.466-.533-4.885-1.597m13.372 3.092c2.606-1.88 3.91-4.254 3.91-7.124 0-2.844-1.304-5.206-3.91-7.086-2.43-1.753-5.289-2.628-8.577-2.628-3.258 0-6.087.875-8.485 2.628-2.518 1.88-3.777 4.242-3.777 7.086 0 2.87 1.259 5.244 3.777 7.124 2.398 1.727 5.227 2.591 8.485 2.591 3.288 0 6.147-.864 8.577-2.591M-24.72-1.88c-1.217-.911-1.822-2.013-1.822-3.304s.605-2.392 1.822-3.305c1.154-.885 2.501-1.328 4.042-1.328 1.481 0 2.797.443 3.953 1.328 1.214.937 1.823 2.039 1.823 3.305 0 1.291-.609 2.393-1.823 3.304-1.156.86-2.472 1.293-3.953 1.293-1.541 0-2.888-.433-4.042-1.293m11.464 2.948c2.253-1.625 3.379-3.705 3.379-6.242 0-2.511-1.126-4.591-3.379-6.24-2.073-1.523-4.548-2.283-7.422-2.283-2.933 0-5.437.76-7.512 2.283-2.251 1.649-3.379 3.729-3.379 6.24 0 2.537 1.128 4.617 3.379 6.242 2.103 1.522 4.607 2.283 7.512 2.283 2.874 0 5.349-.761 7.422-2.283" style="fill:#176fc1;fill-opacity:1;fill-rule:nonzero;stroke:none" transform="translate(366.495 326.026)"/><path d="M0 0h-4.085v-18.021h-4.793v32.248h4.793V3.939H0v10.288h4.938v-32.248H0Zm-24.719-6.79H-8.38v-3.939h-18.247c-1.063 0-1.847.153-2.35.458-.649.381-.974 1.042-.974 1.981v22.517h16.954v-3.939h-11.722z" style="fill:#176fc1;fill-opacity:1;fill-rule:nonzero;stroke:none" transform="translate(407.678 314.151)"/><path d="M0 0v-6.325h-5.202V9.157H0V3.938h5.239V0Zm-27.323 2.885c-1.008-.787-1.511-1.727-1.511-2.817 0-1.041.503-1.953 1.511-2.739 1.01-.787 2.18-1.181 3.515-1.181 1.304 0 2.461.394 3.469 1.181 1.038.786 1.558 1.698 1.558 2.739 0 1.09-.52 2.03-1.558 2.817-1.008.76-2.165 1.141-3.469 1.141-1.335 0-2.505-.381-3.515-1.141M0-23.083h-5.202v9.297h-28.017v3.969H0ZM-15.401 4.026a6.178 6.178 0 0 0 1.244-1.75c.326-.659.49-1.343.49-2.054 0-2.307-1.022-4.209-3.067-5.704-1.926-1.421-4.252-2.132-6.978-2.132-2.756 0-5.125.711-7.11 2.132-2.104 1.495-3.156 3.397-3.156 5.704 0 .711.148 1.395.445 2.054.297.633.742 1.216 1.336 1.75h-3.025v3.821h8.857v3.086h5.585V7.847h8.355V4.026Z" style="fill:#176fc1;fill-opacity:1;fill-rule:nonzero;stroke:none" transform="translate(453.534 319.237)"/><path d="M0 0v24.651h-26.996v3.939H5.201V0Zm-17.988 2.077h5.819v13.564h5.114V2.077H8.308v-3.968h-37.569v3.968h6.128v13.564h5.145z" style="fill:#176fc1;fill-opacity:1;fill-rule:nonzero;stroke:none" transform="translate(487.488 299.788)"/><path d="M0 0c0-14.072-11.408-25.481-25.481-25.481-14.074 0-25.482 11.409-25.482 25.481 0 14.073 11.408 25.481 25.482 25.481C-11.408 25.481 0 14.073 0 0" style="fill:#fff;fill-opacity:1;fill-rule:nonzero;stroke:none" transform="translate(277.779 300.765)"/><path d="M0 0c-11.744 0-21.262-9.52-21.262-21.264 0-11.739 9.518-21.258 21.262-21.258 11.742 0 21.26 9.519 21.26 21.258C21.26-9.52 11.742 0 0 0m0-56.032c-19.205 0-34.774 15.567-34.774 34.768C-34.774-2.06-19.205 13.512 0 13.512c19.203 0 34.771-15.572 34.771-34.776 0-19.201-15.568-34.768-34.771-34.768" style="fill:#bdbcbc;fill-opacity:1;fill-rule:evenodd;stroke:none" transform="translate(252.061 321.821)"/><path d="M0 0c-11.744 0-21.262-9.52-21.262-21.264 0-11.739 9.518-21.258 21.262-21.258 11.742 0 21.26 9.519 21.26 21.258C21.26-9.52 11.742 0 0 0Zm0-56.032c-19.205 0-34.774 15.567-34.774 34.768C-34.774-2.06-19.205 13.512 0 13.512c19.203 0 34.771-15.572 34.771-34.776 0-19.201-15.568-34.768-34.771-34.768z" style="fill:none;stroke:#fff;stroke-width:.75;stroke-linecap:butt;stroke-linejoin:miter;stroke-miterlimit:4;stroke-dasharray:none;stroke-opacity:1" transform="translate(252.061 321.821)"/><path d="M0 0c-12.576 0-22.771-10.195-22.771-22.771 0-12.578 10.195-22.772 22.771-22.772s22.77 10.194 22.77 22.772C22.77-10.195 12.576 0 0 0m32.44-22.771c0-17.917-14.525-32.441-32.44-32.441-17.916 0-32.44 14.524-32.44 32.441 0 17.916 14.524 32.44 32.44 32.44 17.915 0 32.44-14.524 32.44-32.44" style="fill:#176fc1;fill-opacity:1;fill-rule:nonzero;stroke:none" transform="translate(252.061 323.332)"/><path d="m0 0 .649-1.991h2.094L1.046-3.223l.647-1.987L0-3.981-1.691-5.21l.649 1.987-1.694 1.232h2.092z" style="fill:#bdbcbc;fill-opacity:1;fill-rule:evenodd;stroke:none" transform="translate(228.435 317.563)"/><path d="m0 0 .649-1.991h2.094L1.05-3.222l.645-1.991L0-3.982l-1.689-1.231.647 1.991-1.692 1.231h2.09z" style="fill:#bdbcbc;fill-opacity:1;fill-rule:evenodd;stroke:none" transform="translate(224.964 309.037)"/><path d="m0 0-.648-1.991H-2.74l1.694-1.232-.648-1.987L0-3.981 1.69-5.21l-.645 1.987 1.693 1.232H.645Z" style="fill:#bdbcbc;fill-opacity:1;fill-rule:evenodd;stroke:none" transform="translate(275.965 317.563)"/><path d="m0 0-.65-1.991h-2.093l1.697-1.231-.645-1.991L0-3.982l1.694-1.231-.651 1.991 1.694 1.231H.644Z" style="fill:#bdbcbc;fill-opacity:1;fill-rule:evenodd;stroke:none" transform="translate(279.003 309.037)"/><path d="M240.372 308.789h23.455v7.214h-23.455z" style="fill:#176fc1;fill-opacity:1;fill-rule:nonzero;stroke:none"/><path d="M0 0v-12.601c0-5.275 3.483-9.738 8.275-11.209.005-.007.019-.007.029-.012a8.063 8.063 0 0 0 3.419-2.13 8.098 8.098 0 0 0 3.377 2.119c.046.011.095.025.142.041 4.761 1.49 8.213 5.937 8.213 11.191V0Z" style="fill:#176fc1;fill-opacity:1;fill-rule:nonzero;stroke:none" transform="translate(240.372 307.076)"/><path d="M0 0a4.33 4.33 0 1 0-6.643-3.659A4.32 4.32 0 0 0-4.626 0c-3.785-1.021-6.577-4.468-6.577-8.576 0-4.547 3.409-8.289 7.816-8.82v2.959c-3.519.519-6.22 3.544-6.22 7.205 0 1.982.79 3.769 2.068 5.08a5.591 5.591 0 0 1-.399-2.069 5.628 5.628 0 0 1 5.625-5.626A5.626 5.626 0 0 1 3.31-4.221c0 .729-.146 1.428-.397 2.069a7.249 7.249 0 0 0 2.07-5.08c0-3.661-2.705-6.686-6.219-7.205v-2.959c4.4.531 7.814 4.273 7.814 8.82C6.578-4.468 3.785-1.021 0 0" style="fill:#fff;fill-opacity:1;fill-rule:nonzero;stroke:none" transform="translate(254.377 304.084)"/><path d="m0 0 .629-.835C.699-.933.731-.906.8-.85L2.555.542c.079.062.089.108.029.187l-.622.827Zm-.326 4.641c-.165.216-.348.116-.516-.018l-.179.24.965.765L2.1 2.75l-.632-.501ZM.799-1.545c-.262-.208-.575-.191-.786.088l-.657.875c-.162.217-.34.111-.513-.022l-.177.239 3.528 2.801c.057.046.113.043.16-.019L3.3 1.153c.211-.278.151-.592-.114-.803ZM-1.157 2.14c-.619.826-1.644-.023-1.049-.815.62-.824 1.647.017 1.049.815m.635.524C.539 1.253-1.802-.604-2.861.806c-.171.229-.248.503-.243.819l-.586-.466-.338.452 1.186.943-.18.241c-.111.15-.247.087-.362-.003l-.151.201.909.718.463-.617 1.188.945.34-.452-.595-.475c.298-.074.539-.22.708-.448" style="fill:#fff;fill-opacity:1;fill-rule:nonzero;stroke:none" transform="translate(235.516 320.611)"/><path d="M0 0c-.365.982-1.83.419-1.463-.564C-1.094-1.555.371-.992 0 0m-1.117-5.305-.119.322c-.077.212-.254.219-.437.146l-.106.288 3.7 1.425-.129.347-3.636-1.402-.191.52 4.36 1.68c.035.014.052.021.072-.034l.451-1.215c.024-.062.011-.121-.077-.152L-.47-4.629l.105-.287c.019-.054.058-.055.105-.034l3.347 1.289.197-.532L-.418-5.62c-.377-.147-.557-.064-.699.315M.772.297C1.407-1.405-1.601-2.564-2.233-.86-2.869.84.139 2 .772.297m-3.806-3.323L2.781-.784l.201-.53-5.817-2.244z" style="fill:#fff;fill-opacity:1;fill-rule:nonzero;stroke:none" transform="translate(242.997 328.807)"/><path d="M0 0c.015.281-.194.32-.408.331l.017.308L.842.574.51-5.643l-.806.043Zm-5.083-3.174c-.004.016-.004.022.017.021 1.64.248 2.75 1.128 2.845 2.905l-2.312.126.028.576 3.132-.169c.046-.003.053-.009.05-.052-.114-2.18-1.15-3.626-3.399-3.842z" style="fill:#fff;fill-opacity:1;fill-rule:nonzero;stroke:none" transform="translate(254.024 330.21)"/><path d="m0 0 .282.84c.074.219-.052.343-.227.412l.102.299L3.776.146l.281.837L.53 2.349l.183.543 4.242-1.645c.03-.011.045-.032.033-.064L4.403-.57c-.024-.07-.07-.098-.153-.065L1.073.595.784-.268l3.355-1.298-.191-.565L.314-.723C-.051-.581-.134-.396 0 0m-1.381-1.14L4.25-3.322l-.185-.674-5.632 2.183Z" style="fill:#fff;fill-opacity:1;fill-rule:nonzero;stroke:none" transform="translate(259.204 326.982)"/><path d="m0 0-.615.498 3.278 4.414c.163.223.024.373-.145.504l.245.29.941-.76-1.275-1.68.704-.564-.341-.454-.704.565Zm-.823 4.457c.017.065-.031.118-.1.08-.535-.32-1.424-.309-1.945-.085l-.071.646c.002.013 0 .024.021.017.628-.32 1.794-.22 2.518.757l.49.659-.944.756.363.495 2.634-2.097-.365-.495-1.003.788-.489-.661c-.734-.986-.526-2.173-.07-2.725.008-.017.003-.019-.01-.025l-.618-.088c-.336.464-.571 1.352-.411 1.978" style="fill:#fff;fill-opacity:1;fill-rule:nonzero;stroke:none" transform="translate(268.871 318.21)"/><path d="M0 0c-.259-.021-.451-.084-.577-.187a.468.468 0 0 1-.168-.405.525.525 0 0 1 .197-.412c.122-.098.289-.138.497-.127.21.008.36.068.45.174.072.079.145.242.214.491.048.172.109.331.186.473.096.175.207.316.337.423.096.085.213.152.349.201.123.038.259.061.405.069.418.022.764-.075 1.04-.293.275-.215.422-.504.44-.865a1.04 1.04 0 0 0-.325-.836c-.244-.229-.595-.369-1.049-.413l-.038.749c.208.021.362.075.459.157.09.082.133.187.129.319a.414.414 0 0 1-.162.331c-.101.073-.239.105-.421.096A.914.914 0 0 1 1.8-.074a.343.343 0 0 1-.114-.073.624.624 0 0 1-.134-.216 2.836 2.836 0 0 1-.087-.285L1.38-.936a1.386 1.386 0 0 0-.502-.678 1.458 1.458 0 0 0-.829-.28c-.455-.022-.836.081-1.142.315a1.182 1.182 0 0 0-.499.933c-.017.378.113.69.394.942.284.258.673.401 1.161.426z" style="fill:#fff;fill-opacity:1;fill-rule:nonzero;stroke:none" transform="translate(223.048 300.541)"/><path d="m0 0 4.722.798.388-2.312-.812-.137-.258 1.53-1.137-.191.258-1.53-.805-.136L2.1-.447.965-.638l.258-1.53-.836-.143Z" style="fill:#fff;fill-opacity:1;fill-rule:nonzero;stroke:none" transform="translate(221.769 297.222)"/><path d="M0 0a1.545 1.545 0 0 1-.6-.984 1.154 1.154 0 0 1 .043-.538c.123-.383.375-.653.758-.809.377-.158.79-.163 1.241-.018.19.064.359.155.505.276.152.115.28.258.382.426.128.195.203.379.232.555.025.18.006.368-.06.568a1.21 1.21 0 0 1-.261.461c-.121.13-.272.23-.449.304a1.632 1.632 0 0 1-.598.137 1.828 1.828 0 0 1-.62-.09A2.027 2.027 0 0 1 0 0m1.291 1.193A2.36 2.36 0 0 0 2.916.478c.193-.214.334-.458.424-.735.091-.279.119-.562.091-.847a2.227 2.227 0 0 0-.28-.834 2.517 2.517 0 0 0-.614-.716 2.605 2.605 0 0 0-.853-.463 2.778 2.778 0 0 0-.939-.145A2.416 2.416 0 0 0-.12-3.1c-.315.13-.58.305-.796.523a1.95 1.95 0 0 0-.473.784 1.93 1.93 0 0 0-.071.914 2.3 2.3 0 0 0 .352.893c.164.239.367.448.61.626.249.179.525.319.828.419.317.103.639.148.961.134" style="fill:#fff;fill-opacity:1;fill-rule:nonzero;stroke:none" transform="translate(224.34 293.466)"/><path d="m0 0-.358.702 1.573.805 2.094 2.556.401-.79-1.443-1.681 2.2.196.4-.784L1.539.787Z" style="fill:#fff;fill-opacity:1;fill-rule:nonzero;stroke:none" transform="translate(225.09 286.806)"/><path d="m0 0 3.958 2.699L5.269.765 4.588.3 3.72 1.584 2.768.936l.869-1.285-.676-.461L2.093.475l-.952-.651.868-1.282-.7-.476Z" style="fill:#fff;fill-opacity:1;fill-rule:nonzero;stroke:none" transform="translate(226.289 284.692)"/><path d="M0 0a1.525 1.525 0 0 1-.135-1.146c.049-.177.137-.335.261-.469a1.259 1.259 0 0 1 1.025-.418c.409.015.786.183 1.134.507.147.136.263.289.345.458.091.171.147.353.17.549.035.231.028.43-.021.601a1.24 1.24 0 0 1-.29.491 1.25 1.25 0 0 1-.429.31 1.275 1.275 0 0 1-.534.087A1.58 1.58 0 0 1 .925.842 1.777 1.777 0 0 1 .4.503 2.023 2.023 0 0 1 0 0m.675 1.627c.295.125.604.187.926.189.309 0 .591-.053.848-.157a2.03 2.03 0 0 0 .69-.491 2.022 2.022 0 0 0 .529-1.606 2.587 2.587 0 0 0-.259-.91 2.665 2.665 0 0 0-.583-.777 2.854 2.854 0 0 0-.791-.525 2.454 2.454 0 0 0-.854-.215 2.368 2.368 0 0 0-.941.14c-.29.11-.542.281-.756.514a1.95 1.95 0 0 0-.446.8c-.084.303-.1.621-.051.958.05.287.148.561.292.824.152.27.346.513.58.729.246.228.517.405.816.527" style="fill:#fff;fill-opacity:1;fill-rule:nonzero;stroke:none" transform="translate(230.2 282.337)"/><path d="m0 0 2.918 3.81.599-.463-.464-3.635 1.923 2.509.614-.474-2.918-3.81-.572.441.498 3.721L.622-.48Z" style="fill:#fff;fill-opacity:1;fill-rule:nonzero;stroke:none" transform="translate(232.285 277.664)"/><path d="M0 0c-.4-.688-.895-1.147-1.483-1.383-.576-.226-1.138-.198-1.675.089-.28.148-.509.349-.688.606-.178.256-.301.55-.366.886-.05.286-.05.578 0 .874.055.306.155.599.305.882.157.296.355.553.594.768.241.215.513.378.816.487.289.109.576.153.861.138.282-.021.561-.106.838-.253.385-.201.667-.49.846-.86.18-.375.243-.823.188-1.345l-.821.433a1.361 1.361 0 0 1-.208.616c-.11.164-.263.296-.459.401-.162.086-.33.134-.501.144a1.345 1.345 0 0 1-.538-.092 1.627 1.627 0 0 1-.525-.323 1.767 1.767 0 0 1-.383-.497 2.069 2.069 0 0 1-.21-.607 1.5 1.5 0 0 1 .018-.595c.042-.199.122-.376.235-.531.107-.151.241-.27.404-.356.241-.128.486-.176.731-.144.255.034.504.154.748.358l-1.183.626.401.766z" style="fill:#fff;fill-opacity:1;fill-rule:nonzero;stroke:none" transform="translate(241.115 275.03)"/><path d="m0 0 .943 3.93-.694.169.176.735L1.89 4.48.77-.187Z" style="fill:#fff;fill-opacity:1;fill-rule:nonzero;stroke:none" transform="translate(244.645 271.248)"/><path d="M0 0a.686.686 0 0 1-.519.301.679.679 0 0 1-.57-.189c-.154-.147-.243-.358-.268-.633-.024-.268.025-.488.145-.66.115-.171.29-.264.52-.286a.723.723 0 0 1 .584.198c.16.151.251.343.273.578C.188-.42.134-.189 0 0m-1.801-3.652L-.794-2.25l-.096.01c-.377.035-.687.225-.929.577A1.74 1.74 0 0 0-2.124-.47a1.843 1.843 0 0 0 .305.864c.153.265.354.462.594.592.238.13.496.183.778.157A1.372 1.372 0 0 0 .571.544a1.81 1.81 0 0 0 .275-.581c.06-.214.081-.421.062-.627a2.139 2.139 0 0 0-.267-.829 6.333 6.333 0 0 0-.512-.777L-.927-3.73z" style="fill:#fff;fill-opacity:1;fill-rule:nonzero;stroke:none" transform="translate(250.184 274.19)"/><path d="m0 0 1.386 4.059-1.72-.092-.043.828 2.538.134.042-.802L.842.045Z" style="fill:#fff;fill-opacity:1;fill-rule:nonzero;stroke:none" transform="translate(252.54 270.304)"/><path d="M0 0a.654.654 0 0 1 .541-.123.662.662 0 0 1 .465.335.753.753 0 0 1 .081.536c-.044.22-.137.38-.279.486-.149.111-.331.145-.549.102-.222-.047-.382-.148-.476-.303C-.306.887-.329.701-.284.478A.801.801 0 0 1 0 0m-.236 2.214c.088-.077.2-.102.337-.074.138.026.233.091.286.192.052.101.062.232.03.398a.568.568 0 0 1-.192.353.37.37 0 0 1-.323.07.396.396 0 0 1-.282-.198c-.056-.101-.067-.227-.038-.381.033-.165.093-.285.182-.36m-.772-1.187a1.2 1.2 0 0 0 .361.577 1.35 1.35 0 0 0-.519.814c-.071.35-.019.676.154.977.176.305.424.492.742.554.327.067.631-.006.91-.215.278-.206.454-.49.526-.851a1.225 1.225 0 0 0 0-.49 1.32 1.32 0 0 0-.176-.46c.225-.075.406-.202.546-.38.129-.161.221-.371.27-.626.091-.45.033-.849-.172-1.199A1.33 1.33 0 0 0 .69-.938a1.282 1.282 0 0 0-1.086.255 1.639 1.639 0 0 0-.61 1.016 1.59 1.59 0 0 0-.002.694" style="fill:#fff;fill-opacity:1;fill-rule:nonzero;stroke:none" transform="translate(257.362 271.767)"/><path d="m0 0 1.243-2.755c.156-.343.297-.562.426-.655.145-.105.338-.105.571.002.211.095.325.233.339.411.013.161-.057.414-.211.755L1.126.511l.716.324L3.081-1.91c.117-.258.196-.465.236-.62.06-.208.083-.401.062-.574a1.376 1.376 0 0 0-.241-.658 1.288 1.288 0 0 0-.534-.429 1.438 1.438 0 0 0-.707-.143c-.23.017-.455.099-.675.249-.16.108-.299.257-.417.447-.068.113-.161.3-.281.566L-.715-.327z" style="fill:#fff;fill-opacity:1;fill-rule:nonzero;stroke:none" transform="translate(261.993 277.14)"/><path d="m0 0-2.606 4.031.633.412L1.284 2.79-.432 5.447l.648.423 2.608-4.029-.603-.395-3.324 1.716L.662.432Z" style="fill:#fff;fill-opacity:1;fill-rule:nonzero;stroke:none" transform="translate(267.126 274.293)"/><path d="m0 0-3.057 3.699.607.506L.607.506Z" style="fill:#fff;fill-opacity:1;fill-rule:nonzero;stroke:none" transform="translate(271.12 277.09)"/><path d="m0 0-4.557 2.187.584.604L-.97 1.29l-1.591 2.965.576.594L.339.353Z" style="fill:#fff;fill-opacity:1;fill-rule:nonzero;stroke:none" transform="translate(273.708 279.446)"/><path d="m0 0-3.84 2.869 1.392 1.876.661-.493-.923-1.244.92-.689.923 1.245.654-.489-.923-1.242.923-.693.923 1.246.683-.509Z" style="fill:#fff;fill-opacity:1;fill-rule:nonzero;stroke:none" transform="translate(275.86 281.857)"/><path d="M0 0c-.141-.054-.28-.198-.412-.437l-.177-.309 1.13-.643.167.295c.138.243.194.439.167.588-.021.156-.136.292-.339.407C.325.022.147.056 0 0m1.521-.042a1.48 1.48 0 0 0 .122-.895l2.307.159-.486-.86-2.185-.12-.023-.039 1.601-.911-.381-.677-4.162 2.371.517.914c.124.22.224.376.297.473.116.147.244.253.383.32.189.106.411.149.665.129A1.59 1.59 0 0 0 .888.611c.29-.166.501-.383.633-.653" style="fill:#fff;fill-opacity:1;fill-rule:nonzero;stroke:none" transform="translate(275.47 288.18)"/><path d="M0 0c.245-.093.443-.119.602-.079a.473.473 0 0 1 .324.294.529.529 0 0 1-.003.46C.854.813.72.922.527 1.002c-.194.08-.355.093-.482.036C-.054.996-.188.879-.357.685A2.226 2.226 0 0 0-.725.336 1.497 1.497 0 0 0-1.21.097a1.124 1.124 0 0 0-.401-.032 1.67 1.67 0 0 0-.397.111c-.388.16-.66.396-.818.711a1.128 1.128 0 0 0-.03.97c.127.31.343.515.648.619.319.103.695.078 1.125-.076l-.285-.694c-.198.07-.358.088-.482.053a.373.373 0 0 1-.251-.234.421.421 0 0 1 .005-.369c.059-.108.172-.198.339-.267a1.37 1.37 0 0 1 .155-.053.353.353 0 0 1 .136.018.64.64 0 0 1 .214.137c.044.043.111.119.2.224l.2.223c.215.215.464.35.743.401.277.057.567.023.87-.102.423-.174.721-.432.901-.775a1.2 1.2 0 0 0 .053-1.061 1.13 1.13 0 0 0-.756-.682C.591-.892.18-.856-.273-.668Z" style="fill:#fff;fill-opacity:1;fill-rule:nonzero;stroke:none" transform="translate(278.65 289.468)"/><path d="m0 0-4.584 1.389.226.757L.227.757Z" style="fill:#fff;fill-opacity:1;fill-rule:nonzero;stroke:none" transform="translate(281.207 291.947)"/><path d="m0 0-3.878.794-.167-.818-.813.167.491 2.411.812-.168-.167-.823L.157.769Z" style="fill:#fff;fill-opacity:1;fill-rule:nonzero;stroke:none" transform="translate(281.934 294.705)"/><path d="m0 0-.062-.787-1.762.141-3.116-1.077.069.884 2.109.674-1.975.991.069.877L-1.723.139z" style="fill:#fff;fill-opacity:1;fill-rule:nonzero;stroke:none" transform="translate(282.583 299.288)"/><path d="M0 0v1.385h.89v-5.258H0V-.64h-1.432V0Zm-2.667 1.387c0-1.169.142-2.027.426-2.569a1.512 1.512 0 0 1 1.196-.839v-.746a2.565 2.565 0 0 0-1.205.412c-.359.243-.656.6-.888 1.068a2.685 2.685 0 0 0-2.101-1.48v.74c.543.084.947.365 1.211.845.295.542.441 1.4.441 2.569z" style="fill:#fff;fill-opacity:1;fill-rule:nonzero;stroke:none" transform="translate(249.523 313.728)"/><path d="M0 0v.385h.89v-2.393H0v.4h-1.325v.631H0v.345h-1.325V0Zm-2.066-3.038c-.249-.183-.373-.401-.373-.658 0-.252.124-.47.373-.652.244-.177.524-.267.839-.267.32 0 .6.09.839.267.254.178.381.395.381.652 0 .259-.127.479-.381.658-.239.173-.519.26-.839.26-.315 0-.595-.087-.839-.26m2.293.506c.446-.308.67-.696.67-1.164 0-.465-.224-.851-.67-1.158-.416-.286-.906-.43-1.469-.43-.558 0-1.042.144-1.454.43-.431.307-.646.693-.646 1.158 0 .468.215.856.646 1.164.412.282.896.423 1.454.423.563 0 1.053-.141 1.469-.423m-4.47 2.231c-.208-.149-.313-.329-.313-.541 0-.213.105-.392.313-.541.199-.146.43-.22.695-.22.254 0 .481.074.679.22.207.152.313.333.313.541 0 .212-.106.392-.313.541a1.137 1.137 0 0 1-.679.213c-.265 0-.496-.071-.695-.213m1.966.48c.387-.267.581-.606.581-1.021 0-.411-.194-.75-.581-1.018-.354-.249-.779-.374-1.271-.374-.504 0-.931.125-1.287.374-.388.268-.58.607-.58 1.018 0 .415.192.754.58 1.021.359.248.788.372 1.287.372.492 0 .917-.124 1.271-.372" style="fill:#fff;fill-opacity:1;fill-rule:nonzero;stroke:none" transform="translate(258.103 314.728)"/></g></svg>